<svg width="141" height="93" viewBox="0 0 141 93" fill="none" xmlns="http://www.w3.org/2000/svg">
<path fill-rule="evenodd" clip-rule="evenodd" d="M48.4006 17.4387C47.4464 17.5154 44.3135 17.9569 44.1988 18.0309C44.1441 18.0661 43.7947 18.1528 43.4222 18.2236C43.0497 18.2943 42.4825 18.436 42.1618 18.5386C41.2111 18.8426 39.8468 19.3099 39.5964 19.4172C39.4681 19.4722 39.0483 19.6395 38.6635 19.7892C37.6733 20.1742 34.858 21.6451 33.9989 22.2264C33.8065 22.3566 33.4917 22.5546 33.2993 22.6663C33.1069 22.7782 32.9232 22.903 32.8911 22.9439C32.8591 22.9847 32.4917 23.2605 32.0748 23.5566C31.6579 23.8527 31.2275 24.1813 31.1184 24.2868C31.0092 24.3923 30.8507 24.5333 30.7663 24.6003C28.0153 26.7794 24.8448 30.881 24.8448 32.2607C24.8448 32.593 25.2088 33.0584 25.4688 33.0584C25.8827 33.0584 26.5046 32.7069 27.4103 31.9612C29.0766 30.589 31.27 28.9852 32.4642 28.2656C33.0884 27.8896 33.6203 27.5819 33.6463 27.5819C33.6723 27.5819 34.1297 27.3699 34.6626 27.1109C40.4851 24.2807 46.4826 23.7721 52.5987 25.59C53.4507 25.8433 54.5513 26.231 56.3886 26.9256C57.8506 27.4781 57.9524 27.4989 59.2456 27.5097C60.5761 27.5209 60.594 27.5173 61.5196 27.0472C63.0817 26.2537 64.5704 24.8676 65.2207 23.6016C65.3445 23.3605 65.4261 22.9393 65.4261 22.5412C65.4261 21.9826 65.3672 21.8004 65.0438 21.3577C64.3644 20.4283 63.1848 19.7332 61.0531 19.0065C59.2178 18.3807 57.5474 17.986 55.3391 17.6562C54.086 17.4691 49.7233 17.3323 48.4006 17.4387ZM87.291 17.4401C85.3525 17.5633 82.5438 18.0465 80.9939 18.5235C80.6733 18.6221 80.1223 18.7923 79.7695 18.9015C78.8258 19.1937 76.9818 20.0304 76.446 20.4094C74.7166 21.6327 74.7083 23.1995 76.4217 25.0519C77.2656 25.9644 77.8438 26.4073 78.972 27.0054C79.944 27.5208 79.9451 27.5211 81.2272 27.5155C82.4338 27.5102 82.5964 27.4785 83.9676 26.9795C84.7693 26.6878 85.6614 26.3694 85.95 26.2722C86.2386 26.1749 86.6401 26.019 86.8422 25.9258C87.0443 25.8327 87.2723 25.7564 87.3489 25.7564C87.4254 25.7564 87.8373 25.6539 88.2642 25.5286C90.624 24.8358 92.6916 24.5408 95.1916 24.54C98.3622 24.539 101.139 25.1131 104.375 26.4388C107.119 27.563 109.582 29.0708 112.276 31.2762C114.134 32.7972 114.343 32.9421 114.781 33.0137C115.67 33.1588 115.882 32.3152 115.276 31.046C114.503 29.4258 112.336 26.7769 110.578 25.3027C110.277 25.0502 109.978 24.7805 109.914 24.7035C109.76 24.5185 107.381 22.7738 106.514 22.2098C105.693 21.6755 102.97 20.2011 102.396 19.9797C98.2377 18.3758 96.3192 17.9138 92.0139 17.4796C90.9787 17.3752 88.6223 17.3555 87.291 17.4401ZM30.4422 33.1461C28.4296 33.8844 25.9591 35.8636 24.7518 37.7049C24.5464 38.0182 24.3784 38.3151 24.3784 38.3646C24.3784 38.4143 24.3103 38.5413 24.2271 38.647C24.0668 38.8506 23.6841 39.8149 23.4022 40.7255C22.1386 44.8068 21.5881 52.7956 22.1602 58.7486C22.2862 60.0602 22.4181 61.2113 22.4532 61.3069C22.4883 61.4023 22.591 61.9175 22.6814 62.4515C22.9572 64.0799 23.8229 67.4642 24.2044 68.4047C25.0037 70.3755 25.4476 71.3633 25.9207 72.2249C26.2269 72.7825 26.4774 73.2615 26.4774 73.2895C26.4774 73.3174 26.9328 74.0114 27.4894 74.8315C28.4442 76.2385 30.6849 78.7388 31.7161 79.5477C34.4764 81.7133 37.0036 82.8654 40.0966 83.3686C44.1139 84.0222 48.7794 82.9721 52.1323 80.66C53.3193 79.8413 53.5925 79.6094 54.5871 78.5765C56.5899 76.4965 57.5377 74.4241 56.7366 73.8763C56.345 73.6084 55.8103 73.7058 54.3753 74.3063C52.2898 75.1788 50.6418 75.6145 48.7505 75.7932C45.2968 76.1194 42.103 75.4522 39.6078 73.8831C38.8586 73.412 37.3863 72.2091 36.7946 71.5849C36.3221 71.0863 35.1696 69.5948 34.9074 69.1424C34.2093 67.9386 33.6956 66.9743 33.4807 66.465C33.3396 66.1303 33.1542 65.6922 33.0688 65.4914C32.7697 64.7881 32.1867 62.843 31.9439 61.7383C31.7201 60.7198 31.5858 59.8754 31.263 57.4592C31.1184 56.3768 31.1132 49.2952 31.2561 47.8449C31.4436 45.9407 31.607 44.5915 31.7792 43.5246C32.2358 40.6973 32.4614 39.3829 32.6048 38.7174C32.7866 37.8735 33.1708 36.1417 33.4245 35.0221C33.6358 34.0898 33.5215 33.5891 32.9911 33.1233C32.5129 32.7034 31.6276 32.7113 30.4422 33.1461ZM107.665 33.005C107.331 33.249 107.057 33.805 107.057 34.2374C107.057 34.4241 107.234 35.3442 107.45 36.282C108.258 39.79 108.92 43.5534 109.152 45.9586C109.214 46.5945 109.323 47.6076 109.395 48.21C109.558 49.575 109.48 57.4083 109.293 58.372C109.222 58.7401 109.055 59.6711 108.922 60.4409C108.372 63.6181 107.14 66.9535 105.648 69.3065C104.641 70.8946 102.466 73.0327 101.051 73.8264C100.667 74.0423 100.299 74.2605 100.235 74.3112C100.02 74.4817 98.4945 75.0818 97.553 75.3665C97.0208 75.5274 95.9406 75.7108 95.0381 75.7935C91.8675 76.084 88.7087 75.5312 85.8917 74.193C84.7582 73.6544 84.2964 73.589 83.8638 73.9053C83.6251 74.0796 83.5976 74.1811 83.6409 74.7267C83.672 75.1174 83.8091 75.5532 84.0089 75.8967C84.1841 76.198 84.3908 76.5539 84.4682 76.6878C84.9469 77.5155 86.1748 78.9066 87.1161 79.6876C89.4866 81.6545 92.3791 82.9169 95.5723 83.3782C99.6054 83.9609 104.045 82.9457 107.212 80.7167C107.65 80.4084 108.031 80.1562 108.059 80.1562C108.087 80.1562 108.498 79.8341 108.973 79.4404C110.358 78.2917 111.618 76.8912 113.091 74.8623C113.259 74.6311 114.107 73.2795 114.237 73.0368C114.309 72.9029 114.487 72.5743 114.634 72.3066C115.006 71.6302 115.92 69.7234 115.92 69.6252C115.92 69.5806 115.99 69.3717 116.077 69.1608C117.771 65.0353 118.605 59.8426 118.599 53.4492C118.597 51.055 118.347 46.34 118.21 46.1083C118.181 46.0593 118.096 45.483 118.021 44.8274C117.864 43.4499 117.315 41.0656 116.895 39.9344C115.768 36.8994 113.023 34.1698 109.999 33.0778C109.129 32.7634 108.042 32.7296 107.665 33.005Z" fill="white"/>
<path d="M128.273 53.8795C128.984 53.648 131.122 53.2254 131.846 53.1733C133.005 53.09 135.255 53.1039 135.805 53.1977C136.324 53.2863 136.705 53.4948 136.581 53.6229C136.553 53.6525 136.056 53.7679 135.476 53.8795C132.865 54.382 128.83 55.5173 127.512 56.1201C127.383 56.179 126.848 56.3938 126.323 56.597C125.085 57.0771 122.623 58.1818 122.48 58.3219C122.275 58.523 121.647 58.4373 121.371 58.1706C121.147 57.9551 121.112 57.8256 121.165 57.4185C121.206 57.0999 121.324 56.8512 121.5 56.7125C121.857 56.4315 123.693 55.5044 124.583 55.1558C124.97 55.0044 125.365 54.8419 125.462 54.7947C125.558 54.7475 126.112 54.5608 126.692 54.38C127.272 54.1991 127.983 53.9739 128.273 53.8795Z" fill="#CDD8EF"/>
<path d="M121.16 63.9065C120.93 63.5955 120.989 63.1053 121.297 62.7599L121.585 62.4386L124.08 62.4472C125.452 62.4519 127.023 62.5021 127.57 62.5586C129.095 62.7157 131.21 63.0184 131.792 63.1625C132.079 63.2337 132.894 63.4307 133.603 63.6003C134.981 63.9299 135.354 64.0523 137 64.7126C139.06 65.5387 140.808 66.6126 140.808 67.0516C140.808 67.2547 140.744 67.2491 139.9 66.9699C135.087 65.3792 128.854 64.3817 123.728 64.3817C121.802 64.3817 121.466 64.3195 121.16 63.9065Z" fill="#CDD8EF"/>
<path d="M120.276 70.3871C119.521 70.196 119.245 69.2176 119.797 68.6871C120.22 68.2811 120.615 68.3066 122.006 68.8292C122.65 69.0711 123.446 69.3662 123.774 69.4849C124.556 69.7671 125.346 70.1404 127.687 71.3342C130.043 72.5353 131.63 73.5572 133.676 75.19C134.562 75.898 135.547 77.0826 135.456 77.3307C135.393 77.5006 134.978 77.2967 133.076 76.1617C132.323 75.7125 127.77 73.3726 126.75 72.9111C125.044 72.1389 121.058 70.5846 120.276 70.3871Z" fill="#CDD8EF"/>
<path d="M12.453 53.8795C11.747 53.648 9.6228 53.2254 8.90331 53.1733C7.7517 53.09 5.51692 53.1039 4.96968 53.1977C4.45399 53.2863 4.07585 53.4948 4.19864 53.6229C4.22703 53.6525 4.72108 53.7679 5.29648 53.8795C7.8909 54.382 11.8999 55.5173 13.2095 56.1201C13.3375 56.179 13.8689 56.3938 14.3903 56.597C15.6207 57.0771 18.066 58.1818 18.2081 58.3219C18.412 58.523 19.0365 58.4373 19.3108 58.1706C19.5324 57.9551 19.5676 57.8256 19.5154 57.4185C19.4744 57.0999 19.357 56.8512 19.1822 56.7125C18.8279 56.4315 17.0036 55.5044 16.1191 55.1558C15.735 55.0044 15.3422 54.8419 15.2462 54.7947C15.1502 54.7475 14.6003 54.5608 14.0242 54.38C13.4481 54.1991 12.741 53.9739 12.453 53.8795Z" fill="#CDD8EF"/>
<path d="M19.5196 63.9065C19.7484 63.5955 19.6902 63.1053 19.3834 62.7599L19.0979 62.4386L16.6193 62.4472C15.256 62.4519 13.6954 62.5021 13.1513 62.5586C11.6368 62.7157 9.53516 63.0184 8.95685 63.1625C8.67136 63.2337 7.86168 63.4307 7.15756 63.6003C5.78912 63.9299 5.41786 64.0523 3.78244 64.7126C1.73654 65.5387 -2.09808e-05 66.6126 -2.09808e-05 67.0516C-2.09808e-05 67.2547 0.0628125 67.2491 0.901936 66.9699C5.68355 65.3792 11.8757 64.3817 16.9688 64.3817C18.882 64.3817 19.2157 64.3195 19.5196 63.9065Z" fill="#CDD8EF"/>
<path d="M20.398 70.3871C21.1485 70.196 21.4223 69.2176 20.8738 68.6871C20.454 68.2811 20.0613 68.3066 18.679 68.8292C18.0392 69.0711 17.2487 69.3662 16.9225 69.4849C16.146 69.7671 15.3614 70.1404 13.0349 71.3342C10.6945 72.5353 9.11756 73.5572 7.08563 75.19C6.2046 75.898 5.22595 77.0826 5.31719 77.3307C5.37969 77.5006 5.79204 77.2967 7.68129 76.1617C8.42905 75.7125 12.9528 73.3726 13.966 72.9111C15.6612 72.1389 19.6217 70.5846 20.398 70.3871Z" fill="#CDD8EF"/>
<path fill-rule="evenodd" clip-rule="evenodd" d="M97.4688 46.802C97.0086 48.3244 96.2513 49.2078 94.8212 49.8906C94.1114 50.2295 94.0549 50.2358 93.5099 50.0353C93.0252 49.8568 91.6624 49.8257 84.3488 49.8257C78.5636 49.8257 75.5677 49.8755 75.177 49.9781C74.4524 50.1683 73.8257 50.7935 73.6067 51.5446C73.491 51.9413 73.4414 53.1362 73.4471 55.3885C73.4548 58.3854 73.4858 58.8101 73.8199 60.5062C74.7543 65.2474 76.4592 68.6469 78.9335 70.7018C80.4803 71.9864 82.5926 72.8837 82.8821 72.395C82.9367 72.3031 82.5677 71.7551 82.1788 71.1685C80.9531 69.3195 80.3601 67.5316 79.9718 64.5154C79.7942 63.1359 79.757 62.1314 79.8094 60.1348C79.8834 57.324 78.849 56.4382 78.9393 56.1428C79.0296 55.8473 80.7853 55.8776 80.833 55.8752L88.4902 55.8057C95.5024 55.7417 96.1489 55.7162 96.4803 55.4896C96.7012 55.3385 96.841 55.1175 96.841 54.9194C96.841 54.6597 97.0178 54.502 97.7345 54.1229C99.4339 53.2237 100.616 51.5226 100.794 49.7214C100.841 49.2434 100.847 48.8522 100.808 48.8522C100.768 48.8522 100.546 49.16 100.315 49.5361C99.575 50.7388 98.0408 51.7656 96.1657 52.3127C95.0113 52.6496 94.5698 52.6887 95.2138 52.3969C96.9717 51.6005 98.171 49.3704 98.0046 47.2074C97.9132 46.0216 97.7435 45.8932 97.4688 46.802Z" fill="white"/>
<path fill-rule="evenodd" clip-rule="evenodd" d="M43.0448 46.802C43.5026 48.3244 44.2561 49.2078 45.679 49.8906C46.3852 50.2295 46.4414 50.2358 46.9837 50.0353C47.4659 49.8568 48.8218 49.8257 56.0985 49.8257C61.8545 49.8257 64.8352 49.8755 65.224 49.9781C65.9449 50.1683 66.5685 50.7935 66.7863 51.5446C66.9015 51.9413 66.9508 53.1362 66.9451 55.3885C66.9374 58.3854 66.9066 58.8101 66.5742 60.5062C65.6445 65.2474 63.9482 68.6469 61.4865 70.7018C59.9475 71.9864 57.8458 72.8837 57.5577 72.395C57.5035 72.3031 57.8706 71.7551 58.2575 71.1685C59.477 69.3195 60.067 67.5316 60.4533 64.5154C60.6301 63.1359 60.6671 62.1314 60.6149 60.1348C60.5413 57.324 61.5705 56.4382 61.4807 56.1428C61.3909 55.8473 59.644 55.8776 59.5965 55.8752L51.978 55.8057C45.0012 55.7417 44.358 55.7162 44.0283 55.4896C43.8084 55.3385 43.6694 55.1175 43.6694 54.9194C43.6694 54.6597 43.4935 54.502 42.7803 54.1229C41.0896 53.2237 39.9132 51.5226 39.7366 49.7214C39.6898 49.2434 39.6835 48.8522 39.7228 48.8522C39.7621 48.8522 39.9827 49.16 40.213 49.5361C40.9492 50.7388 42.4756 51.7656 44.3412 52.3127C45.4898 52.6496 45.9291 52.6887 45.2884 52.3969C43.5394 51.6005 42.3461 49.3704 42.5117 47.2074C42.6026 46.0216 42.7715 45.8932 43.0448 46.802Z" fill="white"/>
<path d="M115.068 9.44131C110.604 9.50538 107.478 11.1618 101.802 16.5795C107.347 18.7487 110.211 20.669 114.897 25.3239C117.333 16.9261 117.674 12.4507 115.068 9.44131Z" fill="#CDD8EF"/>
<path d="M25.7555 9.44131C30.261 9.50538 33.415 11.1618 39.1439 16.5795C33.5475 18.7487 30.6577 20.669 25.9283 25.3239C23.4698 16.9261 23.1259 12.4507 25.7555 9.44131Z" fill="#CDD8EF"/>
<path fill-rule="evenodd" clip-rule="evenodd" d="M66.6145 79.5243C66.0615 79.7868 65.7411 80.2441 65.6584 80.8888C65.5616 81.6425 65.9613 82.3211 67.0941 83.326C67.6358 83.8067 68.2306 84.3998 68.4158 84.6441C68.7274 85.0554 68.7453 85.1344 68.6576 85.714C68.5294 86.561 68.2 87.1943 67.5732 87.798C65.1882 90.0954 60.3432 90.0582 55.6509 87.7064C54.4722 87.1157 52.9532 86.15 52.0971 85.4473C51.541 84.9906 51.3533 84.9041 50.9179 84.9032C49.4238 84.9006 47.5912 84.528 46.0787 83.9194C45.5915 83.7233 45.1606 83.5629 45.1214 83.5629C44.747 83.5629 47.9948 86.3889 49.8166 87.6484C53.2072 89.9922 55.751 91.1354 59.0729 91.8078C60.4935 92.0955 60.8289 92.1199 62.6383 92.0672C64.1693 92.0226 64.8537 91.9484 65.5692 91.7496C66.9441 91.3675 68.3099 90.6203 69.1693 89.7802L69.9032 89.0629L70.6086 89.7644C71.4506 90.6018 72.5516 91.2313 73.9749 91.6894C74.9689 92.0094 75.1394 92.0263 77.4128 92.0318C79.4876 92.0367 79.9728 91.9999 81.0707 91.7543C85.4701 90.7702 90.264 88.0218 93.9544 84.3681C94.4215 83.9056 94.7776 83.5 94.7458 83.4667C94.714 83.4334 94.621 83.4625 94.5392 83.5314C94.2991 83.7336 92.7227 84.2908 91.6497 84.5528C91.1035 84.6861 90.1363 84.8286 89.5004 84.8693L88.344 84.9434L87.5991 85.5326C86.008 86.7911 84.083 87.8464 81.9896 88.6079C80.2864 89.2274 79.0113 89.4592 77.2961 89.4614C75.058 89.4641 73.3215 88.8817 72.214 87.757C71.6031 87.1366 71.3716 86.6841 71.2166 85.8072C71.0979 85.1363 71.1002 85.127 71.5164 84.5962C71.7471 84.3019 72.3261 83.7238 72.803 83.3117C73.7022 82.5343 74.2623 81.6498 74.2623 81.0068C74.2623 80.1662 73.3124 79.2951 72.3956 79.2951C71.776 79.2951 70.9858 79.572 70.3964 79.9957L69.8844 80.3639L69.4771 80.0083C68.7037 79.333 67.4603 79.1228 66.6145 79.5243Z" fill="#CDD8EF"/>
<path d="M16.8009 6.43254C18.3345 2.02871 19.1144 0.716913 20.5396 0.143829C21.0394 -0.0570977 23.3108 -0.0456649 25.0277 0.16658C25.8257 0.265156 26.5685 0.37566 26.6786 0.41217C26.7886 0.448558 27.3427 0.558219 27.9099 0.655822C29.6036 0.947172 31.3089 1.36606 32.8478 1.86868C34.9736 2.56298 36.5982 3.16441 37.4716 3.58014C37.6737 3.6764 37.8786 3.75514 37.9269 3.75514C38.1707 3.75514 42.1416 5.82356 43.8094 6.8193C44.7057 7.35442 46.1397 8.33399 47.7742 9.52762C49.1945 10.5647 51.3881 12.4598 52.9473 13.9967L53.8923 14.9282L53.3697 14.9922C53.0821 15.0274 51.8761 15.1189 50.6896 15.1955C49.503 15.2722 48.2699 15.3872 47.9492 15.4511C47.6285 15.5151 46.9988 15.621 46.5498 15.6864C45.5866 15.8268 44.396 16.1011 43.343 16.4254C42.9261 16.5538 42.5149 16.658 42.4293 16.657C42.3437 16.6562 41.6875 16.0393 40.9712 15.2862C39.76 14.0131 38.4849 12.8271 37.8633 12.3958C37.7187 12.2954 37.5412 12.1578 37.4688 12.09C37.3428 11.9717 36.9597 11.6895 36.3974 11.3005C35.456 10.6493 32.6865 9.11055 32.4535 9.10921C32.3818 9.10872 32.1918 9.03729 32.0315 8.95027C31.7224 8.78245 30.7168 8.42124 29.466 8.02864C27.9505 7.55292 25.3927 7.36051 24.4752 7.65332C23.2144 8.05566 22.3293 10.1702 21.7515 14.1605C21.5606 15.4787 21.6918 22.1256 21.9399 23.7139C22.1848 25.2802 22.5414 27.0952 22.767 27.9233C22.8598 28.2638 22.9357 28.6407 22.9357 28.7608C22.9357 28.9592 22.5253 29.7735 22.3512 29.9206C22.2095 30.0404 21.082 32.1914 20.6289 33.2065C19.9764 34.6681 19.6318 35.6164 19.1696 37.2226C18.5177 39.4882 18.3786 40.2148 17.9472 43.6118L17.8545 44.342L17.6457 43.6727C17.5308 43.3046 17.3678 42.8391 17.2833 42.6382C17.0529 42.09 16.7004 41.044 16.4015 40.0217C16.2547 39.5197 16.0452 38.8077 15.9359 38.4396C15.4624 36.8458 14.6323 32.7156 14.4804 31.1985C14.4402 30.7968 14.3615 30.2766 14.3056 30.0423C14.2497 29.808 14.1426 28.2472 14.0677 26.5739C13.7366 19.1724 14.6127 12.716 16.8009 6.43254Z" fill="#CDD8EF"/>
<path d="M124.091 6.43254C122.558 2.02871 121.778 0.716913 120.353 0.143829C119.853 -0.0570977 117.581 -0.0456649 115.864 0.16658C115.067 0.265156 114.324 0.37566 114.214 0.41217C114.104 0.448558 113.549 0.558219 112.982 0.655822C111.289 0.947172 109.583 1.36606 108.044 1.86868C105.919 2.56298 104.294 3.16441 103.421 3.58014C103.219 3.6764 103.014 3.75514 102.965 3.75514C102.722 3.75514 98.7506 5.82356 97.0828 6.8193C96.1865 7.35442 94.7525 8.33399 93.118 9.52762C91.6977 10.5647 89.5041 12.4598 87.9449 13.9967L86.9999 14.9282L87.5225 14.9922C87.8101 15.0274 89.0161 15.1189 90.2026 15.1955C91.3892 15.2722 92.6224 15.3872 92.943 15.4511C93.2637 15.5151 93.8934 15.621 94.3424 15.6864C95.3056 15.8268 96.4962 16.1011 97.5493 16.4254C97.9661 16.5538 98.3773 16.658 98.4629 16.657C98.5485 16.6562 99.2047 16.0393 99.921 15.2862C101.132 14.0131 102.407 12.8271 103.029 12.3958C103.174 12.2954 103.351 12.1578 103.423 12.09C103.549 11.9717 103.933 11.6895 104.495 11.3005C105.436 10.6493 108.206 9.11055 108.439 9.10921C108.51 9.10872 108.7 9.03729 108.861 8.95027C109.17 8.78245 110.175 8.42124 111.426 8.02864C112.942 7.55292 115.499 7.36051 116.417 7.65332C117.678 8.05566 118.563 10.1702 119.141 14.1605C119.332 15.4787 119.2 22.1256 118.952 23.7139C118.707 25.2802 118.351 27.0952 118.125 27.9233C118.032 28.2638 117.957 28.6407 117.957 28.7608C117.957 28.9592 118.367 29.7735 118.541 29.9206C118.683 30.0404 119.81 32.1914 120.263 33.2065C120.916 34.6681 121.26 35.6164 121.723 37.2226C122.375 39.4882 122.514 40.2148 122.945 43.6118L123.038 44.342L123.247 43.6727C123.361 43.3046 123.524 42.8391 123.609 42.6382C123.839 42.09 124.192 41.044 124.491 40.0217C124.638 39.5197 124.847 38.8077 124.956 38.4396C125.43 36.8458 126.26 32.7156 126.412 31.1985C126.452 30.7968 126.531 30.2766 126.587 30.0423C126.643 29.808 126.75 28.2472 126.824 26.5739C127.156 19.1724 126.28 12.716 124.091 6.43254Z" fill="#CDD8EF"/>
</svg>
