<svg width="103" height="73" viewBox="0 0 103 73" fill="none" xmlns="http://www.w3.org/2000/svg">
<path d="M23.7883 30.3192C23.4016 30.3246 23.0867 30.4709 22.8674 30.6376C22.5005 30.9166 22.3566 31.2813 22.3147 31.3895C22.2519 31.5518 22.2144 31.7111 22.1897 31.8348C22.1392 32.0877 22.1056 32.3886 22.0813 32.7059C22.0572 33.0213 22.0571 33.3394 22.0774 33.6571C22.0479 33.6191 22.0193 33.5788 21.9875 33.5419C21.9556 33.5047 21.8932 33.4339 21.8108 33.3602C21.7715 33.3251 21.6918 33.257 21.5813 33.1893C21.5158 33.1492 21.2178 32.9648 20.7883 32.9647C20.0827 32.9647 19.6856 33.42 19.5549 33.6054C19.4175 33.8005 19.3596 33.9825 19.3391 34.0507C19.2923 34.2063 19.2784 34.3415 19.2737 34.3915C19.2616 34.5184 19.2614 34.6473 19.2629 34.744C19.2663 34.954 19.2828 35.2141 19.3088 35.4804C19.5377 37.8152 21.0384 39.9417 23.1418 41.0604C23.2204 41.1022 23.2858 41.1402 23.342 41.1718C23.5215 41.702 23.8993 42.1006 24.2444 42.3378C24.5673 42.5598 24.9013 42.6613 25.2522 42.7186C25.5657 42.7699 25.9742 42.7987 26.5159 42.8202C27.6188 42.864 29.5531 42.887 33.0295 42.9188L40.4856 42.9862C40.2896 43.7023 40.1502 44.6156 40.1809 45.787C40.2318 47.7367 40.1943 48.6591 40.0305 49.9374C39.663 52.8064 39.1261 54.3545 38.0706 55.955C37.8869 56.2335 37.6755 56.5517 37.5217 56.8075C37.4477 56.9307 37.3564 57.0891 37.2854 57.2479C37.2522 57.3222 37.1958 57.4578 37.1584 57.6239C37.1433 57.6914 37.0087 58.2238 37.3313 58.7704L37.3323 58.7694C37.6462 59.3015 38.1416 59.5151 38.4836 59.5917C38.8131 59.6655 39.1219 59.6462 39.344 59.6161C39.797 59.5546 40.276 59.3905 40.7102 59.204C41.599 58.8222 42.6334 58.1999 43.5129 57.4657C46.1667 55.2505 47.9185 51.7893 48.9211 47.3153L49.1116 46.4071C49.471 44.5736 49.5032 44.0385 49.511 41.0048C49.5139 39.8717 49.5022 38.9839 49.4749 38.3212C49.4501 37.7218 49.4088 37.1408 49.2922 36.7391C48.9362 35.5121 47.932 34.473 46.6721 34.1405L46.5276 34.1083C46.3831 34.0812 46.2425 34.0683 46.1506 34.0604C45.9918 34.0468 45.798 34.0353 45.5764 34.0253C45.1315 34.0052 44.5264 33.9892 43.7649 33.9764C42.2389 33.951 40.0444 33.9384 37.1643 33.9384C33.5314 33.9384 31.3534 33.9459 30.0237 33.9764C29.3617 33.9917 28.8785 34.013 28.5178 34.0458C28.1839 34.0761 27.8626 34.1245 27.5627 34.2304C27.5149 34.208 27.4594 34.1828 27.3938 34.1513C26.8203 33.876 26.4615 33.5999 26.2063 33.3007C25.9507 33.0009 25.7328 32.5997 25.5471 31.9823C25.4745 31.741 25.3723 31.4382 25.2258 31.1825C25.1679 31.0813 24.9954 30.7875 24.6584 30.5702C24.4635 30.4445 24.1648 30.314 23.7883 30.3192Z" fill="white" stroke="black" stroke-width="3"/>
<path d="M78.8578 30.3192C79.2425 30.3246 79.5563 30.4696 79.7758 30.6356C80.1437 30.914 80.2881 31.2787 80.3304 31.3876C80.3937 31.5502 80.4325 31.7099 80.4574 31.8339C80.5082 32.087 80.5414 32.3877 80.5658 32.705C80.5906 33.0272 80.5904 33.3522 80.5687 33.6766C80.6033 33.6315 80.6381 33.5831 80.6761 33.5389C80.7083 33.5017 80.7713 33.4317 80.8539 33.3583C80.8933 33.3232 80.972 33.2547 81.0824 33.1874C81.1482 33.1473 81.446 32.9647 81.8734 32.9647L82.0013 32.9696C82.6236 33.0199 82.9799 33.4274 83.1039 33.6024C83.2422 33.7978 83.301 33.9803 83.3217 34.0487C83.3688 34.2048 83.3823 34.3403 83.3871 34.3905C83.3993 34.5179 83.4003 34.6471 83.3988 34.744C83.3954 34.9543 83.3782 35.2149 83.3519 35.4813C83.1359 37.6733 81.7962 39.6783 79.89 40.8407L79.5013 41.0614C79.4214 41.1037 79.3553 41.1429 79.2982 41.1747C79.1173 41.7059 78.737 42.1038 78.392 42.3397C78.0689 42.5607 77.7353 42.6615 77.3842 42.7186C77.07 42.7697 76.6602 42.7987 76.1156 42.8202C75.0074 42.864 73.0637 42.887 69.5697 42.9188L62.0687 42.9862C62.2656 43.7026 62.4052 44.6158 62.3744 45.787C62.3232 47.7365 62.3603 48.6586 62.5248 49.9364C62.894 52.8045 63.4339 54.352 64.4945 55.952C64.6791 56.2305 64.8917 56.5487 65.0463 56.8046C65.1207 56.9277 65.2121 57.086 65.2836 57.245C65.3169 57.3193 65.3748 57.4552 65.4125 57.622C65.4278 57.6899 65.5629 58.2251 65.2377 58.7733L65.2367 58.7723C64.9213 59.3042 64.4247 59.5158 64.0844 59.5917C63.7556 59.6649 63.4472 59.6461 63.225 59.6161C62.7715 59.5548 62.2908 59.3913 61.8549 59.205C60.9627 58.8236 59.9238 58.2023 59.0404 57.4686C56.1962 55.1065 54.3823 51.3254 53.4135 46.4091C53.052 44.5746 53.0199 44.0389 53.0121 41.0048C53.0092 39.8716 53.0207 38.984 53.0482 38.3212C53.0731 37.7218 53.1144 37.1398 53.2318 36.7372C53.5903 35.5076 54.6007 34.4716 55.8617 34.1405L56.0052 34.1083C56.1497 34.0813 56.2907 34.0684 56.3832 34.0604C56.5424 34.0468 56.7369 34.0352 56.9594 34.0253C57.4064 34.0052 58.0151 33.9892 58.7806 33.9764C60.3143 33.951 62.5197 33.9384 65.4144 33.9384C69.0657 33.9384 71.254 33.9459 72.5902 33.9764C73.2555 33.9917 73.7408 34.0131 74.1029 34.0458C74.4404 34.0763 74.7643 34.1245 75.0658 34.2313C75.1151 34.2085 75.1725 34.1818 75.2406 34.1493C75.8178 33.8736 76.1781 33.5972 76.4349 33.2977C76.692 32.9978 76.9116 32.5971 77.098 31.9804C77.171 31.7389 77.2739 31.4356 77.4213 31.1796C77.4799 31.0777 77.6532 30.7846 77.9906 30.5682C78.1856 30.4432 78.4832 30.314 78.8578 30.3192Z" fill="white" stroke="black" stroke-width="3"/>
<mask id="path-3-outside-1_176_92" maskUnits="userSpaceOnUse" x="-0.000366211" y="-2.28882e-05" width="103" height="73" fill="black">
<rect fill="white" x="-0.000366211" y="-2.28882e-05" width="103" height="73"/>
<path fill-rule="evenodd" clip-rule="evenodd" d="M29.4661 3.05147C28.5118 3.12814 25.3789 3.56967 25.2643 3.64366C25.2096 3.67883 24.8601 3.7656 24.4876 3.83631C24.1152 3.90702 23.548 4.0488 23.2273 4.15139C22.2765 4.4554 20.9123 4.92261 20.6618 5.02995C20.5335 5.08495 20.1137 5.25229 19.7289 5.40198C18.7387 5.78691 15.9235 7.2579 15.0644 7.83914C14.872 7.96936 14.5571 8.16737 14.3647 8.27909C14.1723 8.39093 13.9886 8.51579 13.9565 8.55669C13.9245 8.59745 13.5572 8.87323 13.1403 9.16932C12.7234 9.46542 12.2929 9.79401 12.1838 9.89952C12.0747 10.005 11.9162 10.1461 11.8317 10.213C9.08073 12.3922 5.91026 16.4937 5.91026 17.8734C5.91026 18.2058 6.27421 18.6712 6.53425 18.6712C6.94811 18.6712 7.57001 18.3197 8.47574 17.5739C10.142 16.2017 12.3354 14.598 13.5296 13.8784C14.1539 13.5023 14.6857 13.1947 14.7117 13.1947C14.7377 13.1947 15.1951 12.9827 15.728 12.7237C21.5505 9.89343 27.548 9.38485 33.6641 11.2028C34.5161 11.4561 35.6167 11.8438 37.4541 12.5383C38.916 13.0909 39.0178 13.1117 40.3111 13.1225C41.6415 13.1337 41.6595 13.13 42.585 12.6599C44.1472 11.8664 45.6358 10.4804 46.2861 9.21435C46.4099 8.97326 46.4916 8.55206 46.4916 8.15398C46.4916 7.59538 46.4327 7.41319 46.1092 6.97044C45.4298 6.04102 44.2503 5.346 42.1186 4.61921C40.2832 3.99343 38.6128 3.59875 36.4045 3.26895C35.1514 3.0819 30.7887 2.9451 29.4661 3.05147ZM68.3565 3.05281C66.4179 3.17609 63.6093 3.65924 62.0594 4.1363C61.7387 4.23488 61.1877 4.40502 60.8349 4.5143C59.8912 4.8065 58.0472 5.64319 57.5115 6.02216C55.782 7.24549 55.7737 8.81225 57.4871 10.6646C58.331 11.5771 58.9092 12.02 60.0374 12.6182C61.0094 13.1336 61.0106 13.1338 62.2926 13.1282C63.4992 13.123 63.6619 13.0912 65.033 12.5922C65.8347 12.3005 66.7268 11.9822 67.0154 11.8849C67.304 11.7877 67.7055 11.6318 67.9076 11.5386C68.1097 11.4455 68.3377 11.3692 68.4143 11.3692C68.4908 11.3692 68.9027 11.2667 69.3296 11.1413C71.6894 10.4485 73.757 10.1535 76.257 10.1528C79.4276 10.1518 82.204 10.7259 85.4403 12.0515C88.1847 13.1758 90.6474 14.6835 93.3415 16.889C95.1994 18.41 95.4082 18.5548 95.8468 18.6265C96.7353 18.7716 96.9475 17.9279 96.3418 16.6587C95.5687 15.0385 93.4017 12.3896 91.6435 10.9155C91.3424 10.6629 91.0435 10.3933 90.9794 10.3162C90.8257 10.1312 88.4469 8.38655 87.5796 7.82259C86.758 7.2882 84.0351 5.81381 83.461 5.59244C79.3032 3.98856 77.3846 3.52659 73.0793 3.09236C72.0441 2.98794 69.6877 2.96823 68.3565 3.05281ZM11.5077 18.7589C9.49506 19.4971 7.02449 21.4763 5.8172 23.3177C5.61184 23.6309 5.4438 23.9279 5.4438 23.9774C5.4438 24.027 5.3757 24.1541 5.29256 24.2597C5.13222 24.4633 4.74949 25.4277 4.46764 26.3382C3.20402 30.4196 2.65349 38.4083 3.22559 44.3614C3.35165 45.6729 3.48354 46.8241 3.51864 46.9196C3.55374 47.015 3.65648 47.5302 3.74685 48.0642C4.02264 49.6927 4.88838 53.0769 5.26982 54.0174C6.06908 55.9882 6.51303 56.9761 6.98613 57.8377C7.29235 58.3952 7.54283 58.8742 7.54283 58.9022C7.54283 58.9302 7.99821 59.6241 8.55481 60.4443C9.50963 61.8512 11.7504 64.3516 12.7816 65.1605C15.5418 67.326 18.069 68.4782 21.1621 68.9814C25.1794 69.6349 29.8448 68.5849 33.1977 66.2727C34.3847 65.454 34.6579 65.2222 35.6525 64.1892C37.6553 62.1092 38.6032 60.0368 37.802 59.489C37.4105 59.2212 36.8758 59.3185 35.4407 59.919C33.3552 60.7916 31.7073 61.2273 29.8159 61.4059C26.3622 61.7322 23.1684 61.0649 20.6732 59.4959C19.924 59.0248 18.4517 57.8219 17.8601 57.1977C17.3875 56.6991 16.2351 55.2075 15.9728 54.7552C15.2747 53.5513 14.7611 52.5871 14.5461 52.0778C14.405 51.7431 14.2196 51.305 14.1343 51.1042C13.8352 50.4009 13.2521 48.4557 13.0093 47.3511C12.7855 46.3326 12.6512 45.4882 12.3284 43.072C12.1838 41.9896 12.1787 34.908 12.3215 33.4577C12.509 31.5534 12.6724 30.2043 12.8446 29.1373C13.3012 26.31 13.5268 24.9956 13.6703 24.3302C13.8521 23.4862 14.2362 21.7544 14.4899 20.6349C14.7012 19.7026 14.587 19.2019 14.0565 18.736C13.5784 18.3162 12.693 18.3241 11.5077 18.7589ZM88.7307 18.6177C88.3968 18.8617 88.1224 19.4178 88.1224 19.8502C88.1224 20.0369 88.2991 20.9569 88.5152 21.8947C89.3234 25.4027 89.9856 29.1662 90.2179 31.5713C90.2794 32.2072 90.3885 33.2204 90.4605 33.8228C90.6236 35.1878 90.5452 43.0211 90.3589 43.9847C90.2876 44.3529 90.1204 45.2839 89.9872 46.0536C89.4374 49.2308 88.2057 52.5663 86.7133 54.9192C85.706 56.5074 83.5318 58.6454 82.1168 59.4391C81.732 59.655 81.3646 59.8732 81.3005 59.924C81.0851 60.0945 79.5599 60.6946 78.6184 60.9793C78.0862 61.1401 77.006 61.3235 76.1035 61.4063C72.933 61.6968 69.7741 61.1439 66.9571 59.8057C65.8236 59.2672 65.3619 59.2017 64.9292 59.518C64.6905 59.6924 64.663 59.7939 64.7064 60.3395C64.7374 60.7301 64.8745 61.1659 65.0743 61.5095C65.2496 61.8107 65.4562 62.1667 65.5336 62.3005C66.0123 63.1282 67.2403 64.5194 68.1816 65.3003C70.5521 67.2672 73.4445 68.5296 76.6377 68.991C80.6708 69.5737 85.1105 68.5585 88.2772 66.3294C88.7152 66.0212 89.0964 65.769 89.1244 65.769C89.1525 65.769 89.5638 65.4469 90.0385 65.0532C91.4237 63.9044 92.6833 62.5039 94.1562 60.475C94.3241 60.2438 95.1727 58.8922 95.3024 58.6496C95.374 58.5157 95.5527 58.1871 95.6996 57.9194C96.0709 57.2429 96.985 55.3362 96.985 55.2379C96.985 55.1934 97.0558 54.9845 97.1425 54.7735C98.8369 50.648 99.6704 45.4553 99.6646 39.062C99.6624 36.6678 99.4125 31.9527 99.2756 31.721C99.2467 31.6721 99.1618 31.0957 99.0868 30.4401C98.9292 29.0626 98.3803 26.6784 97.9603 25.5472C96.8334 22.5121 94.0883 19.7825 91.0645 18.6905C90.1943 18.3762 89.1075 18.3423 88.7307 18.6177Z"/>
</mask>
<path fill-rule="evenodd" clip-rule="evenodd" d="M29.4661 3.05147C28.5118 3.12814 25.3789 3.56967 25.2643 3.64366C25.2096 3.67883 24.8601 3.7656 24.4876 3.83631C24.1152 3.90702 23.548 4.0488 23.2273 4.15139C22.2765 4.4554 20.9123 4.92261 20.6618 5.02995C20.5335 5.08495 20.1137 5.25229 19.7289 5.40198C18.7387 5.78691 15.9235 7.2579 15.0644 7.83914C14.872 7.96936 14.5571 8.16737 14.3647 8.27909C14.1723 8.39093 13.9886 8.51579 13.9565 8.55669C13.9245 8.59745 13.5572 8.87323 13.1403 9.16932C12.7234 9.46542 12.2929 9.79401 12.1838 9.89952C12.0747 10.005 11.9162 10.1461 11.8317 10.213C9.08073 12.3922 5.91026 16.4937 5.91026 17.8734C5.91026 18.2058 6.27421 18.6712 6.53425 18.6712C6.94811 18.6712 7.57001 18.3197 8.47574 17.5739C10.142 16.2017 12.3354 14.598 13.5296 13.8784C14.1539 13.5023 14.6857 13.1947 14.7117 13.1947C14.7377 13.1947 15.1951 12.9827 15.728 12.7237C21.5505 9.89343 27.548 9.38485 33.6641 11.2028C34.5161 11.4561 35.6167 11.8438 37.4541 12.5383C38.916 13.0909 39.0178 13.1117 40.3111 13.1225C41.6415 13.1337 41.6595 13.13 42.585 12.6599C44.1472 11.8664 45.6358 10.4804 46.2861 9.21435C46.4099 8.97326 46.4916 8.55206 46.4916 8.15398C46.4916 7.59538 46.4327 7.41319 46.1092 6.97044C45.4298 6.04102 44.2503 5.346 42.1186 4.61921C40.2832 3.99343 38.6128 3.59875 36.4045 3.26895C35.1514 3.0819 30.7887 2.9451 29.4661 3.05147ZM68.3565 3.05281C66.4179 3.17609 63.6093 3.65924 62.0594 4.1363C61.7387 4.23488 61.1877 4.40502 60.8349 4.5143C59.8912 4.8065 58.0472 5.64319 57.5115 6.02216C55.782 7.24549 55.7737 8.81225 57.4871 10.6646C58.331 11.5771 58.9092 12.02 60.0374 12.6182C61.0094 13.1336 61.0106 13.1338 62.2926 13.1282C63.4992 13.123 63.6619 13.0912 65.033 12.5922C65.8347 12.3005 66.7268 11.9822 67.0154 11.8849C67.304 11.7877 67.7055 11.6318 67.9076 11.5386C68.1097 11.4455 68.3377 11.3692 68.4143 11.3692C68.4908 11.3692 68.9027 11.2667 69.3296 11.1413C71.6894 10.4485 73.757 10.1535 76.257 10.1528C79.4276 10.1518 82.204 10.7259 85.4403 12.0515C88.1847 13.1758 90.6474 14.6835 93.3415 16.889C95.1994 18.41 95.4082 18.5548 95.8468 18.6265C96.7353 18.7716 96.9475 17.9279 96.3418 16.6587C95.5687 15.0385 93.4017 12.3896 91.6435 10.9155C91.3424 10.6629 91.0435 10.3933 90.9794 10.3162C90.8257 10.1312 88.4469 8.38655 87.5796 7.82259C86.758 7.2882 84.0351 5.81381 83.461 5.59244C79.3032 3.98856 77.3846 3.52659 73.0793 3.09236C72.0441 2.98794 69.6877 2.96823 68.3565 3.05281ZM11.5077 18.7589C9.49506 19.4971 7.02449 21.4763 5.8172 23.3177C5.61184 23.6309 5.4438 23.9279 5.4438 23.9774C5.4438 24.027 5.3757 24.1541 5.29256 24.2597C5.13222 24.4633 4.74949 25.4277 4.46764 26.3382C3.20402 30.4196 2.65349 38.4083 3.22559 44.3614C3.35165 45.6729 3.48354 46.8241 3.51864 46.9196C3.55374 47.015 3.65648 47.5302 3.74685 48.0642C4.02264 49.6927 4.88838 53.0769 5.26982 54.0174C6.06908 55.9882 6.51303 56.9761 6.98613 57.8377C7.29235 58.3952 7.54283 58.8742 7.54283 58.9022C7.54283 58.9302 7.99821 59.6241 8.55481 60.4443C9.50963 61.8512 11.7504 64.3516 12.7816 65.1605C15.5418 67.326 18.069 68.4782 21.1621 68.9814C25.1794 69.6349 29.8448 68.5849 33.1977 66.2727C34.3847 65.454 34.6579 65.2222 35.6525 64.1892C37.6553 62.1092 38.6032 60.0368 37.802 59.489C37.4105 59.2212 36.8758 59.3185 35.4407 59.919C33.3552 60.7916 31.7073 61.2273 29.8159 61.4059C26.3622 61.7322 23.1684 61.0649 20.6732 59.4959C19.924 59.0248 18.4517 57.8219 17.8601 57.1977C17.3875 56.6991 16.2351 55.2075 15.9728 54.7552C15.2747 53.5513 14.7611 52.5871 14.5461 52.0778C14.405 51.7431 14.2196 51.305 14.1343 51.1042C13.8352 50.4009 13.2521 48.4557 13.0093 47.3511C12.7855 46.3326 12.6512 45.4882 12.3284 43.072C12.1838 41.9896 12.1787 34.908 12.3215 33.4577C12.509 31.5534 12.6724 30.2043 12.8446 29.1373C13.3012 26.31 13.5268 24.9956 13.6703 24.3302C13.8521 23.4862 14.2362 21.7544 14.4899 20.6349C14.7012 19.7026 14.587 19.2019 14.0565 18.736C13.5784 18.3162 12.693 18.3241 11.5077 18.7589ZM88.7307 18.6177C88.3968 18.8617 88.1224 19.4178 88.1224 19.8502C88.1224 20.0369 88.2991 20.9569 88.5152 21.8947C89.3234 25.4027 89.9856 29.1662 90.2179 31.5713C90.2794 32.2072 90.3885 33.2204 90.4605 33.8228C90.6236 35.1878 90.5452 43.0211 90.3589 43.9847C90.2876 44.3529 90.1204 45.2839 89.9872 46.0536C89.4374 49.2308 88.2057 52.5663 86.7133 54.9192C85.706 56.5074 83.5318 58.6454 82.1168 59.4391C81.732 59.655 81.3646 59.8732 81.3005 59.924C81.0851 60.0945 79.5599 60.6946 78.6184 60.9793C78.0862 61.1401 77.006 61.3235 76.1035 61.4063C72.933 61.6968 69.7741 61.1439 66.9571 59.8057C65.8236 59.2672 65.3619 59.2017 64.9292 59.518C64.6905 59.6924 64.663 59.7939 64.7064 60.3395C64.7374 60.7301 64.8745 61.1659 65.0743 61.5095C65.2496 61.8107 65.4562 62.1667 65.5336 62.3005C66.0123 63.1282 67.2403 64.5194 68.1816 65.3003C70.5521 67.2672 73.4445 68.5296 76.6377 68.991C80.6708 69.5737 85.1105 68.5585 88.2772 66.3294C88.7152 66.0212 89.0964 65.769 89.1244 65.769C89.1525 65.769 89.5638 65.4469 90.0385 65.0532C91.4237 63.9044 92.6833 62.5039 94.1562 60.475C94.3241 60.2438 95.1727 58.8922 95.3024 58.6496C95.374 58.5157 95.5527 58.1871 95.6996 57.9194C96.0709 57.2429 96.985 55.3362 96.985 55.2379C96.985 55.1934 97.0558 54.9845 97.1425 54.7735C98.8369 50.648 99.6704 45.4553 99.6646 39.062C99.6624 36.6678 99.4125 31.9527 99.2756 31.721C99.2467 31.6721 99.1618 31.0957 99.0868 30.4401C98.9292 29.0626 98.3803 26.6784 97.9603 25.5472C96.8334 22.5121 94.0883 19.7825 91.0645 18.6905C90.1943 18.3762 89.1075 18.3423 88.7307 18.6177Z" fill="white"/>
<path fill-rule="evenodd" clip-rule="evenodd" d="M29.4661 3.05147C28.5118 3.12814 25.3789 3.56967 25.2643 3.64366C25.2096 3.67883 24.8601 3.7656 24.4876 3.83631C24.1152 3.90702 23.548 4.0488 23.2273 4.15139C22.2765 4.4554 20.9123 4.92261 20.6618 5.02995C20.5335 5.08495 20.1137 5.25229 19.7289 5.40198C18.7387 5.78691 15.9235 7.2579 15.0644 7.83914C14.872 7.96936 14.5571 8.16737 14.3647 8.27909C14.1723 8.39093 13.9886 8.51579 13.9565 8.55669C13.9245 8.59745 13.5572 8.87323 13.1403 9.16932C12.7234 9.46542 12.2929 9.79401 12.1838 9.89952C12.0747 10.005 11.9162 10.1461 11.8317 10.213C9.08073 12.3922 5.91026 16.4937 5.91026 17.8734C5.91026 18.2058 6.27421 18.6712 6.53425 18.6712C6.94811 18.6712 7.57001 18.3197 8.47574 17.5739C10.142 16.2017 12.3354 14.598 13.5296 13.8784C14.1539 13.5023 14.6857 13.1947 14.7117 13.1947C14.7377 13.1947 15.1951 12.9827 15.728 12.7237C21.5505 9.89343 27.548 9.38485 33.6641 11.2028C34.5161 11.4561 35.6167 11.8438 37.4541 12.5383C38.916 13.0909 39.0178 13.1117 40.3111 13.1225C41.6415 13.1337 41.6595 13.13 42.585 12.6599C44.1472 11.8664 45.6358 10.4804 46.2861 9.21435C46.4099 8.97326 46.4916 8.55206 46.4916 8.15398C46.4916 7.59538 46.4327 7.41319 46.1092 6.97044C45.4298 6.04102 44.2503 5.346 42.1186 4.61921C40.2832 3.99343 38.6128 3.59875 36.4045 3.26895C35.1514 3.0819 30.7887 2.9451 29.4661 3.05147ZM68.3565 3.05281C66.4179 3.17609 63.6093 3.65924 62.0594 4.1363C61.7387 4.23488 61.1877 4.40502 60.8349 4.5143C59.8912 4.8065 58.0472 5.64319 57.5115 6.02216C55.782 7.24549 55.7737 8.81225 57.4871 10.6646C58.331 11.5771 58.9092 12.02 60.0374 12.6182C61.0094 13.1336 61.0106 13.1338 62.2926 13.1282C63.4992 13.123 63.6619 13.0912 65.033 12.5922C65.8347 12.3005 66.7268 11.9822 67.0154 11.8849C67.304 11.7877 67.7055 11.6318 67.9076 11.5386C68.1097 11.4455 68.3377 11.3692 68.4143 11.3692C68.4908 11.3692 68.9027 11.2667 69.3296 11.1413C71.6894 10.4485 73.757 10.1535 76.257 10.1528C79.4276 10.1518 82.204 10.7259 85.4403 12.0515C88.1847 13.1758 90.6474 14.6835 93.3415 16.889C95.1994 18.41 95.4082 18.5548 95.8468 18.6265C96.7353 18.7716 96.9475 17.9279 96.3418 16.6587C95.5687 15.0385 93.4017 12.3896 91.6435 10.9155C91.3424 10.6629 91.0435 10.3933 90.9794 10.3162C90.8257 10.1312 88.4469 8.38655 87.5796 7.82259C86.758 7.2882 84.0351 5.81381 83.461 5.59244C79.3032 3.98856 77.3846 3.52659 73.0793 3.09236C72.0441 2.98794 69.6877 2.96823 68.3565 3.05281ZM11.5077 18.7589C9.49506 19.4971 7.02449 21.4763 5.8172 23.3177C5.61184 23.6309 5.4438 23.9279 5.4438 23.9774C5.4438 24.027 5.3757 24.1541 5.29256 24.2597C5.13222 24.4633 4.74949 25.4277 4.46764 26.3382C3.20402 30.4196 2.65349 38.4083 3.22559 44.3614C3.35165 45.6729 3.48354 46.8241 3.51864 46.9196C3.55374 47.015 3.65648 47.5302 3.74685 48.0642C4.02264 49.6927 4.88838 53.0769 5.26982 54.0174C6.06908 55.9882 6.51303 56.9761 6.98613 57.8377C7.29235 58.3952 7.54283 58.8742 7.54283 58.9022C7.54283 58.9302 7.99821 59.6241 8.55481 60.4443C9.50963 61.8512 11.7504 64.3516 12.7816 65.1605C15.5418 67.326 18.069 68.4782 21.1621 68.9814C25.1794 69.6349 29.8448 68.5849 33.1977 66.2727C34.3847 65.454 34.6579 65.2222 35.6525 64.1892C37.6553 62.1092 38.6032 60.0368 37.802 59.489C37.4105 59.2212 36.8758 59.3185 35.4407 59.919C33.3552 60.7916 31.7073 61.2273 29.8159 61.4059C26.3622 61.7322 23.1684 61.0649 20.6732 59.4959C19.924 59.0248 18.4517 57.8219 17.8601 57.1977C17.3875 56.6991 16.2351 55.2075 15.9728 54.7552C15.2747 53.5513 14.7611 52.5871 14.5461 52.0778C14.405 51.7431 14.2196 51.305 14.1343 51.1042C13.8352 50.4009 13.2521 48.4557 13.0093 47.3511C12.7855 46.3326 12.6512 45.4882 12.3284 43.072C12.1838 41.9896 12.1787 34.908 12.3215 33.4577C12.509 31.5534 12.6724 30.2043 12.8446 29.1373C13.3012 26.31 13.5268 24.9956 13.6703 24.3302C13.8521 23.4862 14.2362 21.7544 14.4899 20.6349C14.7012 19.7026 14.587 19.2019 14.0565 18.736C13.5784 18.3162 12.693 18.3241 11.5077 18.7589ZM88.7307 18.6177C88.3968 18.8617 88.1224 19.4178 88.1224 19.8502C88.1224 20.0369 88.2991 20.9569 88.5152 21.8947C89.3234 25.4027 89.9856 29.1662 90.2179 31.5713C90.2794 32.2072 90.3885 33.2204 90.4605 33.8228C90.6236 35.1878 90.5452 43.0211 90.3589 43.9847C90.2876 44.3529 90.1204 45.2839 89.9872 46.0536C89.4374 49.2308 88.2057 52.5663 86.7133 54.9192C85.706 56.5074 83.5318 58.6454 82.1168 59.4391C81.732 59.655 81.3646 59.8732 81.3005 59.924C81.0851 60.0945 79.5599 60.6946 78.6184 60.9793C78.0862 61.1401 77.006 61.3235 76.1035 61.4063C72.933 61.6968 69.7741 61.1439 66.9571 59.8057C65.8236 59.2672 65.3619 59.2017 64.9292 59.518C64.6905 59.6924 64.663 59.7939 64.7064 60.3395C64.7374 60.7301 64.8745 61.1659 65.0743 61.5095C65.2496 61.8107 65.4562 62.1667 65.5336 62.3005C66.0123 63.1282 67.2403 64.5194 68.1816 65.3003C70.5521 67.2672 73.4445 68.5296 76.6377 68.991C80.6708 69.5737 85.1105 68.5585 88.2772 66.3294C88.7152 66.0212 89.0964 65.769 89.1244 65.769C89.1525 65.769 89.5638 65.4469 90.0385 65.0532C91.4237 63.9044 92.6833 62.5039 94.1562 60.475C94.3241 60.2438 95.1727 58.8922 95.3024 58.6496C95.374 58.5157 95.5527 58.1871 95.6996 57.9194C96.0709 57.2429 96.985 55.3362 96.985 55.2379C96.985 55.1934 97.0558 54.9845 97.1425 54.7735C98.8369 50.648 99.6704 45.4553 99.6646 39.062C99.6624 36.6678 99.4125 31.9527 99.2756 31.721C99.2467 31.6721 99.1618 31.0957 99.0868 30.4401C98.9292 29.0626 98.3803 26.6784 97.9603 25.5472C96.8334 22.5121 94.0883 19.7825 91.0645 18.6905C90.1943 18.3762 89.1075 18.3423 88.7307 18.6177Z" stroke="black" stroke-width="6" mask="url(#path-3-outside-1_176_92)"/>
</svg>
