<svg width="141" height="93" viewBox="0 0 141 93" fill="none" xmlns="http://www.w3.org/2000/svg">
<mask id="path-1-outside-1_175_53" maskUnits="userSpaceOnUse" x="20.9342" y="16.3872" width="99" height="69" fill="black">
<rect fill="white" x="20.9342" y="16.3872" width="99" height="69"/>
<path fill-rule="evenodd" clip-rule="evenodd" d="M48.4006 17.4387C47.4464 17.5154 44.3135 17.9569 44.1988 18.0309C44.1441 18.0661 43.7947 18.1528 43.4222 18.2236C43.0497 18.2943 42.4825 18.436 42.1618 18.5386C41.2111 18.8426 39.8468 19.3099 39.5964 19.4172C39.4681 19.4722 39.0483 19.6395 38.6635 19.7892C37.6733 20.1742 34.858 21.6451 33.9989 22.2264C33.8065 22.3566 33.4917 22.5546 33.2993 22.6663C33.1069 22.7782 32.9232 22.903 32.8911 22.9439C32.8591 22.9847 32.4917 23.2605 32.0748 23.5566C31.6579 23.8527 31.2275 24.1813 31.1184 24.2868C31.0092 24.3923 30.8507 24.5333 30.7663 24.6003C28.0153 26.7794 24.8448 30.881 24.8448 32.2607C24.8448 32.593 25.2088 33.0584 25.4688 33.0584C25.8827 33.0584 26.5046 32.7069 27.4103 31.9612C29.0766 30.589 31.27 28.9852 32.4642 28.2656C33.0884 27.8896 33.6203 27.5819 33.6463 27.5819C33.6723 27.5819 34.1297 27.3699 34.6626 27.1109C40.4851 24.2807 46.4826 23.7721 52.5987 25.59C53.4507 25.8433 54.5513 26.231 56.3886 26.9256C57.8506 27.4781 57.9524 27.4989 59.2456 27.5097C60.5761 27.5209 60.594 27.5173 61.5196 27.0472C63.0817 26.2537 64.5704 24.8676 65.2207 23.6016C65.3445 23.3605 65.4261 22.9393 65.4261 22.5412C65.4261 21.9826 65.3672 21.8004 65.0438 21.3577C64.3644 20.4283 63.1848 19.7332 61.0531 19.0065C59.2178 18.3807 57.5474 17.986 55.3391 17.6562C54.086 17.4691 49.7233 17.3323 48.4006 17.4387ZM87.291 17.4401C85.3525 17.5633 82.5438 18.0465 80.9939 18.5235C80.6733 18.6221 80.1223 18.7923 79.7695 18.9015C78.8258 19.1937 76.9818 20.0304 76.446 20.4094C74.7166 21.6327 74.7083 23.1995 76.4217 25.0519C77.2656 25.9644 77.8438 26.4073 78.972 27.0054C79.944 27.5208 79.9451 27.5211 81.2272 27.5155C82.4338 27.5102 82.5964 27.4785 83.9676 26.9795C84.7693 26.6878 85.6614 26.3694 85.95 26.2722C86.2386 26.1749 86.6401 26.019 86.8422 25.9258C87.0443 25.8327 87.2723 25.7564 87.3489 25.7564C87.4254 25.7564 87.8373 25.6539 88.2642 25.5286C90.624 24.8358 92.6916 24.5408 95.1916 24.54C98.3622 24.539 101.139 25.1131 104.375 26.4388C107.119 27.563 109.582 29.0708 112.276 31.2762C114.134 32.7972 114.343 32.9421 114.781 33.0137C115.67 33.1588 115.882 32.3152 115.276 31.046C114.503 29.4258 112.336 26.7769 110.578 25.3027C110.277 25.0502 109.978 24.7805 109.914 24.7035C109.76 24.5185 107.381 22.7738 106.514 22.2098C105.693 21.6755 102.97 20.2011 102.396 19.9797C98.2377 18.3758 96.3192 17.9138 92.0139 17.4796C90.9787 17.3752 88.6223 17.3555 87.291 17.4401ZM30.4422 33.1461C28.4296 33.8844 25.9591 35.8636 24.7518 37.7049C24.5464 38.0182 24.3784 38.3151 24.3784 38.3646C24.3784 38.4143 24.3103 38.5413 24.2271 38.647C24.0668 38.8506 23.6841 39.8149 23.4022 40.7255C22.1386 44.8068 21.5881 52.7956 22.1602 58.7486C22.2862 60.0602 22.4181 61.2113 22.4532 61.3069C22.4883 61.4023 22.591 61.9175 22.6814 62.4515C22.9572 64.0799 23.8229 67.4642 24.2044 68.4047C25.0037 70.3755 25.4476 71.3633 25.9207 72.2249C26.2269 72.7825 26.4774 73.2615 26.4774 73.2895C26.4774 73.3174 26.9328 74.0114 27.4894 74.8315C28.4442 76.2385 30.6849 78.7388 31.7161 79.5477C34.4764 81.7133 37.0036 82.8654 40.0966 83.3686C44.1139 84.0222 48.7794 82.9721 52.1323 80.66C53.3193 79.8413 53.5925 79.6094 54.5871 78.5765C56.5899 76.4965 57.5377 74.4241 56.7366 73.8763C56.345 73.6084 55.8103 73.7058 54.3753 74.3063C52.2898 75.1788 50.6418 75.6145 48.7505 75.7932C45.2968 76.1194 42.103 75.4522 39.6078 73.8831C38.8586 73.412 37.3863 72.2091 36.7946 71.5849C36.3221 71.0863 35.1696 69.5948 34.9074 69.1424C34.2093 67.9386 33.6956 66.9743 33.4807 66.465C33.3396 66.1303 33.1542 65.6922 33.0688 65.4914C32.7697 64.7881 32.1867 62.843 31.9439 61.7383C31.7201 60.7198 31.5858 59.8754 31.263 57.4592C31.1184 56.3768 31.1132 49.2952 31.2561 47.8449C31.4436 45.9407 31.607 44.5915 31.7792 43.5246C32.2358 40.6973 32.4614 39.3829 32.6048 38.7174C32.7866 37.8735 33.1708 36.1417 33.4245 35.0221C33.6358 34.0898 33.5215 33.5891 32.9911 33.1233C32.5129 32.7034 31.6276 32.7113 30.4422 33.1461ZM107.665 33.005C107.331 33.249 107.057 33.805 107.057 34.2374C107.057 34.4241 107.234 35.3442 107.45 36.282C108.258 39.79 108.92 43.5534 109.152 45.9586C109.214 46.5945 109.323 47.6076 109.395 48.21C109.558 49.575 109.48 57.4083 109.293 58.372C109.222 58.7401 109.055 59.6711 108.922 60.4409C108.372 63.6181 107.14 66.9535 105.648 69.3065C104.641 70.8946 102.466 73.0327 101.051 73.8264C100.667 74.0423 100.299 74.2605 100.235 74.3112C100.02 74.4817 98.4945 75.0818 97.553 75.3665C97.0208 75.5274 95.9406 75.7108 95.0381 75.7935C91.8675 76.084 88.7087 75.5312 85.8917 74.193C84.7582 73.6544 84.2964 73.589 83.8638 73.9053C83.6251 74.0796 83.5976 74.1811 83.6409 74.7267C83.672 75.1174 83.8091 75.5532 84.0089 75.8967C84.1841 76.198 84.3908 76.5539 84.4682 76.6878C84.9469 77.5155 86.1748 78.9066 87.1161 79.6876C89.4866 81.6545 92.3791 82.9169 95.5723 83.3782C99.6054 83.9609 104.045 82.9457 107.212 80.7167C107.65 80.4084 108.031 80.1562 108.059 80.1562C108.087 80.1562 108.498 79.8341 108.973 79.4404C110.358 78.2917 111.618 76.8912 113.091 74.8623C113.259 74.6311 114.107 73.2795 114.237 73.0368C114.309 72.9029 114.487 72.5743 114.634 72.3066C115.006 71.6302 115.92 69.7234 115.92 69.6252C115.92 69.5806 115.99 69.3717 116.077 69.1608C117.771 65.0353 118.605 59.8426 118.599 53.4492C118.597 51.055 118.347 46.34 118.21 46.1083C118.181 46.0593 118.096 45.483 118.021 44.8274C117.864 43.4499 117.315 41.0656 116.895 39.9344C115.768 36.8994 113.023 34.1698 109.999 33.0778C109.129 32.7634 108.042 32.7296 107.665 33.005Z"/>
</mask>
<path fill-rule="evenodd" clip-rule="evenodd" d="M48.4006 17.4387C47.4464 17.5154 44.3135 17.9569 44.1988 18.0309C44.1441 18.0661 43.7947 18.1528 43.4222 18.2236C43.0497 18.2943 42.4825 18.436 42.1618 18.5386C41.2111 18.8426 39.8468 19.3099 39.5964 19.4172C39.4681 19.4722 39.0483 19.6395 38.6635 19.7892C37.6733 20.1742 34.858 21.6451 33.9989 22.2264C33.8065 22.3566 33.4917 22.5546 33.2993 22.6663C33.1069 22.7782 32.9232 22.903 32.8911 22.9439C32.8591 22.9847 32.4917 23.2605 32.0748 23.5566C31.6579 23.8527 31.2275 24.1813 31.1184 24.2868C31.0092 24.3923 30.8507 24.5333 30.7663 24.6003C28.0153 26.7794 24.8448 30.881 24.8448 32.2607C24.8448 32.593 25.2088 33.0584 25.4688 33.0584C25.8827 33.0584 26.5046 32.7069 27.4103 31.9612C29.0766 30.589 31.27 28.9852 32.4642 28.2656C33.0884 27.8896 33.6203 27.5819 33.6463 27.5819C33.6723 27.5819 34.1297 27.3699 34.6626 27.1109C40.4851 24.2807 46.4826 23.7721 52.5987 25.59C53.4507 25.8433 54.5513 26.231 56.3886 26.9256C57.8506 27.4781 57.9524 27.4989 59.2456 27.5097C60.5761 27.5209 60.594 27.5173 61.5196 27.0472C63.0817 26.2537 64.5704 24.8676 65.2207 23.6016C65.3445 23.3605 65.4261 22.9393 65.4261 22.5412C65.4261 21.9826 65.3672 21.8004 65.0438 21.3577C64.3644 20.4283 63.1848 19.7332 61.0531 19.0065C59.2178 18.3807 57.5474 17.986 55.3391 17.6562C54.086 17.4691 49.7233 17.3323 48.4006 17.4387ZM87.291 17.4401C85.3525 17.5633 82.5438 18.0465 80.9939 18.5235C80.6733 18.6221 80.1223 18.7923 79.7695 18.9015C78.8258 19.1937 76.9818 20.0304 76.446 20.4094C74.7166 21.6327 74.7083 23.1995 76.4217 25.0519C77.2656 25.9644 77.8438 26.4073 78.972 27.0054C79.944 27.5208 79.9451 27.5211 81.2272 27.5155C82.4338 27.5102 82.5964 27.4785 83.9676 26.9795C84.7693 26.6878 85.6614 26.3694 85.95 26.2722C86.2386 26.1749 86.6401 26.019 86.8422 25.9258C87.0443 25.8327 87.2723 25.7564 87.3489 25.7564C87.4254 25.7564 87.8373 25.6539 88.2642 25.5286C90.624 24.8358 92.6916 24.5408 95.1916 24.54C98.3622 24.539 101.139 25.1131 104.375 26.4388C107.119 27.563 109.582 29.0708 112.276 31.2762C114.134 32.7972 114.343 32.9421 114.781 33.0137C115.67 33.1588 115.882 32.3152 115.276 31.046C114.503 29.4258 112.336 26.7769 110.578 25.3027C110.277 25.0502 109.978 24.7805 109.914 24.7035C109.76 24.5185 107.381 22.7738 106.514 22.2098C105.693 21.6755 102.97 20.2011 102.396 19.9797C98.2377 18.3758 96.3192 17.9138 92.0139 17.4796C90.9787 17.3752 88.6223 17.3555 87.291 17.4401ZM30.4422 33.1461C28.4296 33.8844 25.9591 35.8636 24.7518 37.7049C24.5464 38.0182 24.3784 38.3151 24.3784 38.3646C24.3784 38.4143 24.3103 38.5413 24.2271 38.647C24.0668 38.8506 23.6841 39.8149 23.4022 40.7255C22.1386 44.8068 21.5881 52.7956 22.1602 58.7486C22.2862 60.0602 22.4181 61.2113 22.4532 61.3069C22.4883 61.4023 22.591 61.9175 22.6814 62.4515C22.9572 64.0799 23.8229 67.4642 24.2044 68.4047C25.0037 70.3755 25.4476 71.3633 25.9207 72.2249C26.2269 72.7825 26.4774 73.2615 26.4774 73.2895C26.4774 73.3174 26.9328 74.0114 27.4894 74.8315C28.4442 76.2385 30.6849 78.7388 31.7161 79.5477C34.4764 81.7133 37.0036 82.8654 40.0966 83.3686C44.1139 84.0222 48.7794 82.9721 52.1323 80.66C53.3193 79.8413 53.5925 79.6094 54.5871 78.5765C56.5899 76.4965 57.5377 74.4241 56.7366 73.8763C56.345 73.6084 55.8103 73.7058 54.3753 74.3063C52.2898 75.1788 50.6418 75.6145 48.7505 75.7932C45.2968 76.1194 42.103 75.4522 39.6078 73.8831C38.8586 73.412 37.3863 72.2091 36.7946 71.5849C36.3221 71.0863 35.1696 69.5948 34.9074 69.1424C34.2093 67.9386 33.6956 66.9743 33.4807 66.465C33.3396 66.1303 33.1542 65.6922 33.0688 65.4914C32.7697 64.7881 32.1867 62.843 31.9439 61.7383C31.7201 60.7198 31.5858 59.8754 31.263 57.4592C31.1184 56.3768 31.1132 49.2952 31.2561 47.8449C31.4436 45.9407 31.607 44.5915 31.7792 43.5246C32.2358 40.6973 32.4614 39.3829 32.6048 38.7174C32.7866 37.8735 33.1708 36.1417 33.4245 35.0221C33.6358 34.0898 33.5215 33.5891 32.9911 33.1233C32.5129 32.7034 31.6276 32.7113 30.4422 33.1461ZM107.665 33.005C107.331 33.249 107.057 33.805 107.057 34.2374C107.057 34.4241 107.234 35.3442 107.45 36.282C108.258 39.79 108.92 43.5534 109.152 45.9586C109.214 46.5945 109.323 47.6076 109.395 48.21C109.558 49.575 109.48 57.4083 109.293 58.372C109.222 58.7401 109.055 59.6711 108.922 60.4409C108.372 63.6181 107.14 66.9535 105.648 69.3065C104.641 70.8946 102.466 73.0327 101.051 73.8264C100.667 74.0423 100.299 74.2605 100.235 74.3112C100.02 74.4817 98.4945 75.0818 97.553 75.3665C97.0208 75.5274 95.9406 75.7108 95.0381 75.7935C91.8675 76.084 88.7087 75.5312 85.8917 74.193C84.7582 73.6544 84.2964 73.589 83.8638 73.9053C83.6251 74.0796 83.5976 74.1811 83.6409 74.7267C83.672 75.1174 83.8091 75.5532 84.0089 75.8967C84.1841 76.198 84.3908 76.5539 84.4682 76.6878C84.9469 77.5155 86.1748 78.9066 87.1161 79.6876C89.4866 81.6545 92.3791 82.9169 95.5723 83.3782C99.6054 83.9609 104.045 82.9457 107.212 80.7167C107.65 80.4084 108.031 80.1562 108.059 80.1562C108.087 80.1562 108.498 79.8341 108.973 79.4404C110.358 78.2917 111.618 76.8912 113.091 74.8623C113.259 74.6311 114.107 73.2795 114.237 73.0368C114.309 72.9029 114.487 72.5743 114.634 72.3066C115.006 71.6302 115.92 69.7234 115.92 69.6252C115.92 69.5806 115.99 69.3717 116.077 69.1608C117.771 65.0353 118.605 59.8426 118.599 53.4492C118.597 51.055 118.347 46.34 118.21 46.1083C118.181 46.0593 118.096 45.483 118.021 44.8274C117.864 43.4499 117.315 41.0656 116.895 39.9344C115.768 36.8994 113.023 34.1698 109.999 33.0778C109.129 32.7634 108.042 32.7296 107.665 33.005Z" fill="white"/>
<path fill-rule="evenodd" clip-rule="evenodd" d="M48.4006 17.4387C47.4464 17.5154 44.3135 17.9569 44.1988 18.0309C44.1441 18.0661 43.7947 18.1528 43.4222 18.2236C43.0497 18.2943 42.4825 18.436 42.1618 18.5386C41.2111 18.8426 39.8468 19.3099 39.5964 19.4172C39.4681 19.4722 39.0483 19.6395 38.6635 19.7892C37.6733 20.1742 34.858 21.6451 33.9989 22.2264C33.8065 22.3566 33.4917 22.5546 33.2993 22.6663C33.1069 22.7782 32.9232 22.903 32.8911 22.9439C32.8591 22.9847 32.4917 23.2605 32.0748 23.5566C31.6579 23.8527 31.2275 24.1813 31.1184 24.2868C31.0092 24.3923 30.8507 24.5333 30.7663 24.6003C28.0153 26.7794 24.8448 30.881 24.8448 32.2607C24.8448 32.593 25.2088 33.0584 25.4688 33.0584C25.8827 33.0584 26.5046 32.7069 27.4103 31.9612C29.0766 30.589 31.27 28.9852 32.4642 28.2656C33.0884 27.8896 33.6203 27.5819 33.6463 27.5819C33.6723 27.5819 34.1297 27.3699 34.6626 27.1109C40.4851 24.2807 46.4826 23.7721 52.5987 25.59C53.4507 25.8433 54.5513 26.231 56.3886 26.9256C57.8506 27.4781 57.9524 27.4989 59.2456 27.5097C60.5761 27.5209 60.594 27.5173 61.5196 27.0472C63.0817 26.2537 64.5704 24.8676 65.2207 23.6016C65.3445 23.3605 65.4261 22.9393 65.4261 22.5412C65.4261 21.9826 65.3672 21.8004 65.0438 21.3577C64.3644 20.4283 63.1848 19.7332 61.0531 19.0065C59.2178 18.3807 57.5474 17.986 55.3391 17.6562C54.086 17.4691 49.7233 17.3323 48.4006 17.4387ZM87.291 17.4401C85.3525 17.5633 82.5438 18.0465 80.9939 18.5235C80.6733 18.6221 80.1223 18.7923 79.7695 18.9015C78.8258 19.1937 76.9818 20.0304 76.446 20.4094C74.7166 21.6327 74.7083 23.1995 76.4217 25.0519C77.2656 25.9644 77.8438 26.4073 78.972 27.0054C79.944 27.5208 79.9451 27.5211 81.2272 27.5155C82.4338 27.5102 82.5964 27.4785 83.9676 26.9795C84.7693 26.6878 85.6614 26.3694 85.95 26.2722C86.2386 26.1749 86.6401 26.019 86.8422 25.9258C87.0443 25.8327 87.2723 25.7564 87.3489 25.7564C87.4254 25.7564 87.8373 25.6539 88.2642 25.5286C90.624 24.8358 92.6916 24.5408 95.1916 24.54C98.3622 24.539 101.139 25.1131 104.375 26.4388C107.119 27.563 109.582 29.0708 112.276 31.2762C114.134 32.7972 114.343 32.9421 114.781 33.0137C115.67 33.1588 115.882 32.3152 115.276 31.046C114.503 29.4258 112.336 26.7769 110.578 25.3027C110.277 25.0502 109.978 24.7805 109.914 24.7035C109.76 24.5185 107.381 22.7738 106.514 22.2098C105.693 21.6755 102.97 20.2011 102.396 19.9797C98.2377 18.3758 96.3192 17.9138 92.0139 17.4796C90.9787 17.3752 88.6223 17.3555 87.291 17.4401ZM30.4422 33.1461C28.4296 33.8844 25.9591 35.8636 24.7518 37.7049C24.5464 38.0182 24.3784 38.3151 24.3784 38.3646C24.3784 38.4143 24.3103 38.5413 24.2271 38.647C24.0668 38.8506 23.6841 39.8149 23.4022 40.7255C22.1386 44.8068 21.5881 52.7956 22.1602 58.7486C22.2862 60.0602 22.4181 61.2113 22.4532 61.3069C22.4883 61.4023 22.591 61.9175 22.6814 62.4515C22.9572 64.0799 23.8229 67.4642 24.2044 68.4047C25.0037 70.3755 25.4476 71.3633 25.9207 72.2249C26.2269 72.7825 26.4774 73.2615 26.4774 73.2895C26.4774 73.3174 26.9328 74.0114 27.4894 74.8315C28.4442 76.2385 30.6849 78.7388 31.7161 79.5477C34.4764 81.7133 37.0036 82.8654 40.0966 83.3686C44.1139 84.0222 48.7794 82.9721 52.1323 80.66C53.3193 79.8413 53.5925 79.6094 54.5871 78.5765C56.5899 76.4965 57.5377 74.4241 56.7366 73.8763C56.345 73.6084 55.8103 73.7058 54.3753 74.3063C52.2898 75.1788 50.6418 75.6145 48.7505 75.7932C45.2968 76.1194 42.103 75.4522 39.6078 73.8831C38.8586 73.412 37.3863 72.2091 36.7946 71.5849C36.3221 71.0863 35.1696 69.5948 34.9074 69.1424C34.2093 67.9386 33.6956 66.9743 33.4807 66.465C33.3396 66.1303 33.1542 65.6922 33.0688 65.4914C32.7697 64.7881 32.1867 62.843 31.9439 61.7383C31.7201 60.7198 31.5858 59.8754 31.263 57.4592C31.1184 56.3768 31.1132 49.2952 31.2561 47.8449C31.4436 45.9407 31.607 44.5915 31.7792 43.5246C32.2358 40.6973 32.4614 39.3829 32.6048 38.7174C32.7866 37.8735 33.1708 36.1417 33.4245 35.0221C33.6358 34.0898 33.5215 33.5891 32.9911 33.1233C32.5129 32.7034 31.6276 32.7113 30.4422 33.1461ZM107.665 33.005C107.331 33.249 107.057 33.805 107.057 34.2374C107.057 34.4241 107.234 35.3442 107.45 36.282C108.258 39.79 108.92 43.5534 109.152 45.9586C109.214 46.5945 109.323 47.6076 109.395 48.21C109.558 49.575 109.48 57.4083 109.293 58.372C109.222 58.7401 109.055 59.6711 108.922 60.4409C108.372 63.6181 107.14 66.9535 105.648 69.3065C104.641 70.8946 102.466 73.0327 101.051 73.8264C100.667 74.0423 100.299 74.2605 100.235 74.3112C100.02 74.4817 98.4945 75.0818 97.553 75.3665C97.0208 75.5274 95.9406 75.7108 95.0381 75.7935C91.8675 76.084 88.7087 75.5312 85.8917 74.193C84.7582 73.6544 84.2964 73.589 83.8638 73.9053C83.6251 74.0796 83.5976 74.1811 83.6409 74.7267C83.672 75.1174 83.8091 75.5532 84.0089 75.8967C84.1841 76.198 84.3908 76.5539 84.4682 76.6878C84.9469 77.5155 86.1748 78.9066 87.1161 79.6876C89.4866 81.6545 92.3791 82.9169 95.5723 83.3782C99.6054 83.9609 104.045 82.9457 107.212 80.7167C107.65 80.4084 108.031 80.1562 108.059 80.1562C108.087 80.1562 108.498 79.8341 108.973 79.4404C110.358 78.2917 111.618 76.8912 113.091 74.8623C113.259 74.6311 114.107 73.2795 114.237 73.0368C114.309 72.9029 114.487 72.5743 114.634 72.3066C115.006 71.6302 115.92 69.7234 115.92 69.6252C115.92 69.5806 115.99 69.3717 116.077 69.1608C117.771 65.0353 118.605 59.8426 118.599 53.4492C118.597 51.055 118.347 46.34 118.21 46.1083C118.181 46.0593 118.096 45.483 118.021 44.8274C117.864 43.4499 117.315 41.0656 116.895 39.9344C115.768 36.8994 113.023 34.1698 109.999 33.0778C109.129 32.7634 108.042 32.7296 107.665 33.005Z" stroke="black" stroke-width="2" mask="url(#path-1-outside-1_175_53)"/>
<path d="M128.273 53.8795C128.984 53.648 131.122 53.2254 131.846 53.1733C133.005 53.09 135.255 53.1039 135.805 53.1977C136.324 53.2863 136.705 53.4948 136.581 53.6229C136.553 53.6525 136.056 53.7679 135.476 53.8795C132.865 54.382 128.83 55.5173 127.512 56.1201C127.383 56.179 126.848 56.3938 126.323 56.597C125.085 57.0771 122.623 58.1818 122.48 58.3219C122.275 58.523 121.647 58.4373 121.371 58.1706C121.147 57.9551 121.112 57.8256 121.165 57.4185C121.206 57.0999 121.324 56.8512 121.5 56.7125C121.857 56.4315 123.693 55.5044 124.583 55.1558C124.97 55.0044 125.365 54.8419 125.462 54.7947C125.558 54.7475 126.112 54.5608 126.692 54.38C127.272 54.1991 127.983 53.9739 128.273 53.8795Z" fill="#CDD8EF"/>
<path d="M121.16 63.9065C120.93 63.5955 120.989 63.1053 121.297 62.7599L121.585 62.4386L124.08 62.4472C125.452 62.4519 127.023 62.5021 127.57 62.5586C129.095 62.7157 131.21 63.0184 131.792 63.1625C132.079 63.2337 132.894 63.4307 133.603 63.6003C134.981 63.9299 135.354 64.0523 137 64.7126C139.06 65.5387 140.808 66.6126 140.808 67.0516C140.808 67.2547 140.744 67.2491 139.9 66.9699C135.087 65.3792 128.854 64.3817 123.728 64.3817C121.802 64.3817 121.466 64.3195 121.16 63.9065Z" fill="#CDD8EF"/>
<path d="M120.276 70.3871C119.521 70.196 119.245 69.2176 119.797 68.6871C120.22 68.2811 120.615 68.3066 122.006 68.8292C122.65 69.0711 123.446 69.3662 123.774 69.4849C124.556 69.7671 125.346 70.1404 127.687 71.3342C130.043 72.5353 131.63 73.5572 133.676 75.19C134.562 75.898 135.547 77.0826 135.456 77.3307C135.393 77.5006 134.978 77.2967 133.076 76.1617C132.323 75.7125 127.77 73.3726 126.75 72.9111C125.044 72.1389 121.058 70.5846 120.276 70.3871Z" fill="#CDD8EF"/>
<path d="M12.453 53.8795C11.747 53.648 9.6228 53.2254 8.90331 53.1733C7.7517 53.09 5.51692 53.1039 4.96968 53.1977C4.45399 53.2863 4.07585 53.4948 4.19864 53.6229C4.22703 53.6525 4.72108 53.7679 5.29648 53.8795C7.8909 54.382 11.8999 55.5173 13.2095 56.1201C13.3375 56.179 13.8689 56.3938 14.3903 56.597C15.6207 57.0771 18.066 58.1818 18.2081 58.3219C18.412 58.523 19.0365 58.4373 19.3108 58.1706C19.5324 57.9551 19.5676 57.8256 19.5154 57.4185C19.4744 57.0999 19.357 56.8512 19.1822 56.7125C18.8279 56.4315 17.0036 55.5044 16.1191 55.1558C15.735 55.0044 15.3422 54.8419 15.2462 54.7947C15.1502 54.7475 14.6003 54.5608 14.0242 54.38C13.4481 54.1991 12.741 53.9739 12.453 53.8795Z" fill="#CDD8EF"/>
<path d="M19.5196 63.9065C19.7484 63.5955 19.6902 63.1053 19.3834 62.7599L19.0979 62.4386L16.6193 62.4472C15.256 62.4519 13.6954 62.5021 13.1513 62.5586C11.6368 62.7157 9.53516 63.0184 8.95685 63.1625C8.67136 63.2337 7.86168 63.4307 7.15756 63.6003C5.78912 63.9299 5.41786 64.0523 3.78244 64.7126C1.73654 65.5387 -2.09808e-05 66.6126 -2.09808e-05 67.0516C-2.09808e-05 67.2547 0.0628125 67.2491 0.901936 66.9699C5.68355 65.3792 11.8757 64.3817 16.9688 64.3817C18.882 64.3817 19.2157 64.3195 19.5196 63.9065Z" fill="#CDD8EF"/>
<path d="M20.398 70.3871C21.1485 70.196 21.4223 69.2176 20.8738 68.6871C20.454 68.2811 20.0613 68.3066 18.679 68.8292C18.0392 69.0711 17.2487 69.3662 16.9225 69.4849C16.146 69.7671 15.3614 70.1404 13.0349 71.3342C10.6945 72.5353 9.11756 73.5572 7.08563 75.19C6.2046 75.898 5.22595 77.0826 5.31719 77.3307C5.37969 77.5006 5.79204 77.2967 7.68129 76.1617C8.42905 75.7125 12.9528 73.3726 13.966 72.9111C15.6612 72.1389 19.6217 70.5846 20.398 70.3871Z" fill="#CDD8EF"/>
<path d="M97.7777 45.7065C97.9138 45.7084 98.0263 45.7598 98.1068 45.8207C98.2442 45.9246 98.3064 46.0679 98.3334 46.1371C98.3673 46.2243 98.3922 46.3213 98.4115 46.4174C98.4505 46.6115 98.4799 46.8659 98.5033 47.1694C98.6196 48.6815 98.122 50.2383 97.222 51.393C98.4452 50.8457 99.3885 50.0874 99.889 49.2738C100.009 49.0783 100.13 48.8972 100.228 48.7612C100.276 48.6945 100.324 48.6303 100.368 48.5795C100.388 48.5555 100.418 48.5232 100.453 48.4926C100.469 48.4779 100.498 48.453 100.537 48.4291C100.562 48.4142 100.664 48.352 100.808 48.352L100.891 48.3588C101.075 48.3886 101.183 48.5116 101.223 48.5678C101.27 48.6347 101.291 48.6983 101.299 48.725C101.317 48.7848 101.324 48.842 101.327 48.8735C101.333 48.9453 101.335 49.031 101.333 49.1156C101.331 49.2906 101.316 49.522 101.291 49.7699C101.108 51.6264 99.9619 53.3621 98.306 54.3725L97.9681 54.5649C97.6049 54.757 97.4341 54.8657 97.3519 54.9389C97.3466 54.9436 97.3419 54.948 97.3383 54.9516C97.3246 55.3556 97.0591 55.6997 96.7621 55.9028C96.5993 56.014 96.4198 56.0771 96.1586 56.1196C95.9093 56.1601 95.5516 56.187 95.0101 56.2084C93.921 56.2515 91.9965 56.2741 88.4945 56.3061L80.8373 56.3754L80.8363 56.3744C80.8083 56.3748 80.7679 56.3754 80.7416 56.3754C80.6901 56.3754 80.6191 56.3754 80.5355 56.3764C80.3677 56.3784 80.1507 56.3839 79.9349 56.3979C79.8043 56.4064 79.6808 56.4189 79.5726 56.433C79.647 56.5833 79.7421 56.7779 79.8344 57.0141C80.0962 57.6849 80.3477 58.6752 80.309 60.1479C80.257 62.1289 80.2949 63.1059 80.4681 64.4516C80.8501 67.4184 81.4254 69.1259 82.5961 70.892C82.7871 71.1802 82.9835 71.4753 83.1244 71.7084C83.1939 71.8234 83.2602 71.9404 83.306 72.0424C83.3281 72.0916 83.3552 72.1577 83.3715 72.2299C83.3804 72.2694 83.4247 72.4596 83.3119 72.6498C83.1826 72.8679 82.9736 72.9649 82.8011 73.0033C82.6327 73.0408 82.4549 73.0349 82.2933 73.0131C81.967 72.969 81.5807 72.8432 81.183 72.6733C80.3805 72.3303 79.4238 71.7591 78.6136 71.0863C76.0163 68.929 74.2753 65.4023 73.3295 60.603C72.9862 58.8608 72.9544 58.3991 72.9467 55.3901C72.9438 54.2618 72.9552 53.3912 72.9818 52.7504C73.0075 52.1309 73.0487 51.6712 73.1263 51.4047C73.3918 50.4941 74.1467 49.7318 75.0502 49.4946C75.1458 49.4695 75.2756 49.4547 75.4037 49.4438C75.5438 49.4318 75.7228 49.4212 75.9388 49.4115C76.372 49.3921 76.9696 49.3764 77.7318 49.3637C79.257 49.3383 81.4558 49.3256 84.349 49.3256C88.0036 49.3256 90.1789 49.3334 91.5013 49.3637C92.1617 49.3788 92.6201 49.3995 92.9476 49.4291C93.2702 49.4583 93.4991 49.4982 93.683 49.5658C93.9734 49.6727 94.0139 49.6723 94.0492 49.6684C94.1171 49.6608 94.223 49.6227 94.6058 49.4399C95.2751 49.1203 95.7599 48.7663 96.1293 48.3354C96.4986 47.9045 96.7751 47.3704 96.9906 46.6576C97.0607 46.4257 97.1356 46.216 97.222 46.0658C97.2602 45.9996 97.336 45.8801 97.4652 45.7973C97.5385 45.7504 97.6453 45.7047 97.7777 45.7065Z" fill="white" stroke="black"/>
<path d="M42.7366 45.7065C42.5999 45.7084 42.4878 45.7606 42.4075 45.8217C42.2705 45.9259 42.2086 46.0691 42.1819 46.1381C42.1482 46.2251 42.1239 46.3223 42.1047 46.4184C42.066 46.6123 42.0362 46.8661 42.0129 47.1694C41.8974 48.6795 42.3909 50.2354 43.2854 51.3901C42.0723 50.8433 41.1369 50.0868 40.6399 49.2748C40.5202 49.0794 40.4005 48.8982 40.303 48.7621C40.2552 48.6955 40.2069 48.6313 40.1633 48.5805C40.1427 48.5565 40.1127 48.5242 40.0784 48.4936C40.0618 48.4788 40.0327 48.4532 39.9934 48.4291C39.9688 48.4141 39.8674 48.352 39.7229 48.352C39.486 48.352 39.3518 48.505 39.3069 48.5688C39.2597 48.6358 39.2397 48.6994 39.2317 48.726C39.2138 48.7856 39.2073 48.8421 39.2043 48.8735C39.1975 48.9452 39.1962 49.0309 39.1975 49.1156C39.2003 49.2906 39.2142 49.522 39.2385 49.7699C39.4325 51.7489 40.7171 53.5914 42.5452 54.5639V54.5649C42.9066 54.757 43.0769 54.8649 43.1584 54.9379C43.1638 54.9427 43.1685 54.9471 43.1721 54.9506C43.1853 55.3539 43.4489 55.6981 43.7454 55.9018C43.9079 56.0134 44.0873 56.076 44.3479 56.1186C44.5962 56.1592 44.9519 56.187 45.4905 56.2084C46.5742 56.2515 48.4894 56.2741 51.9739 56.3061L59.592 56.3754L59.593 56.3744C59.6211 56.3748 59.6617 56.3754 59.6877 56.3754C59.7389 56.3754 59.8089 56.3754 59.8918 56.3764C60.0589 56.3784 60.2756 56.3838 60.4905 56.3979C60.6194 56.4063 60.7411 56.4181 60.8479 56.4321C60.7739 56.5824 60.6801 56.7773 60.5881 57.0141C60.3276 57.6847 60.0769 58.6752 60.1155 60.1479C60.1672 62.1287 60.1296 63.1059 59.9573 64.4516C59.5772 67.4186 59.0049 69.1268 57.8401 70.893C57.65 71.1813 57.4539 71.4763 57.3137 71.7094C57.2446 71.8244 57.1786 71.9414 57.1331 72.0434C57.1111 72.0925 57.0848 72.1582 57.0686 72.2299C57.0598 72.269 57.0153 72.4591 57.1272 72.6488C57.2558 72.867 57.4642 72.9646 57.637 73.0033C57.8054 73.041 57.9827 73.035 58.1438 73.0131C58.4692 72.969 58.8543 72.8433 59.2502 72.6733C60.0491 72.3301 61.0007 71.7583 61.8069 71.0854C64.3915 68.9278 66.1237 65.401 67.0647 60.602C67.4061 58.8604 67.4378 58.3988 67.4456 55.3901C67.4484 54.2618 67.4369 53.3912 67.4104 52.7504C67.3848 52.1311 67.344 51.6719 67.2668 51.4057C67.003 50.496 66.2523 49.7323 65.3518 49.4946C65.2562 49.4693 65.1267 49.4547 64.9993 49.4438C64.8597 49.4318 64.6813 49.4212 64.4661 49.4115C64.035 49.3921 63.4402 49.3764 62.6819 49.3637C61.1644 49.3384 58.9772 49.3256 56.0989 49.3256C52.4623 49.3256 50.2975 49.3334 48.9817 49.3637C48.3249 49.3788 47.8692 49.3996 47.5432 49.4291C47.222 49.4583 46.9933 49.498 46.8098 49.5658C46.5205 49.6728 46.4813 49.6721 46.4475 49.6684C46.3809 49.6609 46.2765 49.6226 45.8958 49.4399C45.2303 49.1205 44.7475 48.7671 44.3801 48.3363C44.0127 47.9055 43.7381 47.3707 43.5237 46.6576C43.454 46.426 43.3791 46.2168 43.2932 46.0668C43.2554 46.0008 43.1798 45.8814 43.051 45.7983C42.9777 45.751 42.8699 45.7046 42.7366 45.7065Z" fill="white" stroke="black"/>
<path d="M115.068 9.44131C110.604 9.50538 107.478 11.1618 101.802 16.5795C107.347 18.7487 110.211 20.669 114.897 25.3239C117.333 16.9261 117.674 12.4507 115.068 9.44131Z" fill="#CDD8EF"/>
<path d="M25.7555 9.44131C30.261 9.50538 33.415 11.1618 39.1439 16.5795C33.5475 18.7487 30.6577 20.669 25.9283 25.3239C23.4698 16.9261 23.1259 12.4507 25.7555 9.44131Z" fill="#CDD8EF"/>
<path fill-rule="evenodd" clip-rule="evenodd" d="M66.6145 79.5243C66.0615 79.7868 65.7411 80.2441 65.6584 80.8888C65.5616 81.6425 65.9613 82.3211 67.0941 83.326C67.6358 83.8067 68.2306 84.3998 68.4158 84.6441C68.7274 85.0554 68.7453 85.1344 68.6576 85.714C68.5294 86.561 68.2 87.1943 67.5732 87.798C65.1882 90.0954 60.3432 90.0582 55.6509 87.7064C54.4722 87.1157 52.9532 86.15 52.0971 85.4473C51.541 84.9906 51.3533 84.9041 50.9179 84.9032C49.4238 84.9006 47.5912 84.528 46.0787 83.9194C45.5915 83.7233 45.1606 83.5629 45.1214 83.5629C44.747 83.5629 47.9948 86.3889 49.8166 87.6484C53.2072 89.9922 55.751 91.1354 59.0729 91.8078C60.4935 92.0955 60.8289 92.1199 62.6383 92.0672C64.1693 92.0226 64.8537 91.9484 65.5692 91.7496C66.9441 91.3675 68.3099 90.6203 69.1693 89.7802L69.9032 89.0629L70.6086 89.7644C71.4506 90.6018 72.5516 91.2313 73.9749 91.6894C74.9689 92.0094 75.1394 92.0263 77.4128 92.0318C79.4876 92.0367 79.9728 91.9999 81.0707 91.7543C85.4701 90.7702 90.264 88.0218 93.9544 84.3681C94.4215 83.9056 94.7776 83.5 94.7458 83.4667C94.714 83.4334 94.621 83.4625 94.5392 83.5314C94.2991 83.7336 92.7227 84.2908 91.6497 84.5528C91.1035 84.6861 90.1363 84.8286 89.5004 84.8693L88.344 84.9434L87.5991 85.5326C86.008 86.7911 84.083 87.8464 81.9896 88.6079C80.2864 89.2274 79.0113 89.4592 77.2961 89.4614C75.058 89.4641 73.3215 88.8817 72.214 87.757C71.6031 87.1366 71.3716 86.6841 71.2166 85.8072C71.0979 85.1363 71.1002 85.127 71.5164 84.5962C71.7471 84.3019 72.3261 83.7238 72.803 83.3117C73.7022 82.5343 74.2623 81.6498 74.2623 81.0068C74.2623 80.1662 73.3124 79.2951 72.3956 79.2951C71.776 79.2951 70.9858 79.572 70.3964 79.9957L69.8844 80.3639L69.4771 80.0083C68.7037 79.333 67.4603 79.1228 66.6145 79.5243Z" fill="#CDD8EF"/>
<path d="M16.8009 6.43254C18.3345 2.02871 19.1144 0.716913 20.5396 0.143829C21.0394 -0.0570977 23.3108 -0.0456649 25.0277 0.16658C25.8257 0.265156 26.5685 0.37566 26.6786 0.41217C26.7886 0.448558 27.3427 0.558219 27.9099 0.655822C29.6036 0.947172 31.3089 1.36606 32.8478 1.86868C34.9736 2.56298 36.5982 3.16441 37.4716 3.58014C37.6737 3.6764 37.8786 3.75514 37.9269 3.75514C38.1707 3.75514 42.1416 5.82356 43.8094 6.8193C44.7057 7.35442 46.1397 8.33399 47.7742 9.52762C49.1945 10.5647 51.3881 12.4598 52.9473 13.9967L53.8923 14.9282L53.3697 14.9922C53.0821 15.0274 51.8761 15.1189 50.6896 15.1955C49.503 15.2722 48.2699 15.3872 47.9492 15.4511C47.6285 15.5151 46.9988 15.621 46.5498 15.6864C45.5866 15.8268 44.396 16.1011 43.343 16.4254C42.9261 16.5538 42.5149 16.658 42.4293 16.657C42.3437 16.6562 41.6875 16.0393 40.9712 15.2862C39.76 14.0131 38.4849 12.8271 37.8633 12.3958C37.7187 12.2954 37.5412 12.1578 37.4688 12.09C37.3428 11.9717 36.9597 11.6895 36.3974 11.3005C35.456 10.6493 32.6865 9.11055 32.4535 9.10921C32.3818 9.10872 32.1918 9.03729 32.0315 8.95027C31.7224 8.78245 30.7168 8.42124 29.466 8.02864C27.9505 7.55292 25.3927 7.36051 24.4752 7.65332C23.2144 8.05566 22.3293 10.1702 21.7515 14.1605C21.5606 15.4787 21.6918 22.1256 21.9399 23.7139C22.1848 25.2802 22.5414 27.0952 22.767 27.9233C22.8598 28.2638 22.9357 28.6407 22.9357 28.7608C22.9357 28.9592 22.5253 29.7735 22.3512 29.9206C22.2095 30.0404 21.082 32.1914 20.6289 33.2065C19.9764 34.6681 19.6318 35.6164 19.1696 37.2226C18.5177 39.4882 18.3786 40.2148 17.9472 43.6118L17.8545 44.342L17.6457 43.6727C17.5308 43.3046 17.3678 42.8391 17.2833 42.6382C17.0529 42.09 16.7004 41.044 16.4015 40.0217C16.2547 39.5197 16.0452 38.8077 15.9359 38.4396C15.4624 36.8458 14.6323 32.7156 14.4804 31.1985C14.4402 30.7968 14.3615 30.2766 14.3056 30.0423C14.2497 29.808 14.1426 28.2472 14.0677 26.5739C13.7366 19.1724 14.6127 12.716 16.8009 6.43254Z" fill="#CDD8EF"/>
<path d="M124.091 6.43254C122.558 2.02871 121.778 0.716913 120.353 0.143829C119.853 -0.0570977 117.581 -0.0456649 115.864 0.16658C115.067 0.265156 114.324 0.37566 114.214 0.41217C114.104 0.448558 113.549 0.558219 112.982 0.655822C111.289 0.947172 109.583 1.36606 108.044 1.86868C105.919 2.56298 104.294 3.16441 103.421 3.58014C103.219 3.6764 103.014 3.75514 102.965 3.75514C102.722 3.75514 98.7506 5.82356 97.0828 6.8193C96.1865 7.35442 94.7525 8.33399 93.118 9.52762C91.6977 10.5647 89.5041 12.4598 87.9449 13.9967L86.9999 14.9282L87.5225 14.9922C87.8101 15.0274 89.0161 15.1189 90.2026 15.1955C91.3892 15.2722 92.6224 15.3872 92.943 15.4511C93.2637 15.5151 93.8934 15.621 94.3424 15.6864C95.3056 15.8268 96.4962 16.1011 97.5493 16.4254C97.9661 16.5538 98.3773 16.658 98.4629 16.657C98.5485 16.6562 99.2047 16.0393 99.921 15.2862C101.132 14.0131 102.407 12.8271 103.029 12.3958C103.174 12.2954 103.351 12.1578 103.423 12.09C103.549 11.9717 103.933 11.6895 104.495 11.3005C105.436 10.6493 108.206 9.11055 108.439 9.10921C108.51 9.10872 108.7 9.03729 108.861 8.95027C109.17 8.78245 110.175 8.42124 111.426 8.02864C112.942 7.55292 115.499 7.36051 116.417 7.65332C117.678 8.05566 118.563 10.1702 119.141 14.1605C119.332 15.4787 119.2 22.1256 118.952 23.7139C118.707 25.2802 118.351 27.0952 118.125 27.9233C118.032 28.2638 117.957 28.6407 117.957 28.7608C117.957 28.9592 118.367 29.7735 118.541 29.9206C118.683 30.0404 119.81 32.1914 120.263 33.2065C120.916 34.6681 121.26 35.6164 121.723 37.2226C122.375 39.4882 122.514 40.2148 122.945 43.6118L123.038 44.342L123.247 43.6727C123.361 43.3046 123.524 42.8391 123.609 42.6382C123.839 42.09 124.192 41.044 124.491 40.0217C124.638 39.5197 124.847 38.8077 124.956 38.4396C125.43 36.8458 126.26 32.7156 126.412 31.1985C126.452 30.7968 126.531 30.2766 126.587 30.0423C126.643 29.808 126.75 28.2472 126.824 26.5739C127.156 19.1724 126.28 12.716 124.091 6.43254Z" fill="#CDD8EF"/>
</svg>
